<?xml version="1.0" encoding="UTF-8"?>
<svg version="1.1" xmlns="http://www.w3.org/2000/svg" width="1411" height="1620">
<path d="M0 0 C78.9547507 -2.70523337 160.82072823 15.24411615 311.96826172 74.27050781 C313.03004639 74.83487549 313.03004639 74.83487549 314.11328125 75.41064453 C314.75837646 75.7613501 315.40347168 76.11205566 316.06811523 76.47338867 C318.0601204 77.40594568 318.0601204 77.40594568 320.8671875 76.12548828 C322.63418834 73.57510992 322.63418834 73.57510992 324.3515625 70.41064453 C325.04560655 69.23659511 325.74231313 68.06411636 326.44140625 66.89306641 C327.53294075 65.05113246 328.60687533 63.20677381 329.63720703 61.32983398 C335.34018624 51.0197583 335.34018624 51.0197583 341.27246094 48.92041016 C345.16204111 48.39180801 348.94415276 48.21393931 352.8671875 48.12548828 C355.30192792 47.86346723 357.73444648 47.57983742 360.1640625 47.27392578 C383.10413387 44.82515512 406.17070773 42.92527265 428.8671875 48.12548828 C430.10855469 48.39232422 431.34992188 48.65916016 432.62890625 48.93408203 C476.11921748 59.33293435 513.02794498 90.31653538 536.43212891 127.65698242 C550.81923907 151.28400913 561.08271801 179.19889535 561 207.13330078 C561.00095673 207.86241669 561.00191345 208.59153259 561.00289917 209.34274292 C561.00357429 210.87042325 561.00176706 212.39810657 560.99755859 213.92578125 C560.99218509 216.25153067 560.99753435 218.57708838 561.00390625 220.90283203 C561.00324565 222.39632204 561.00196487 223.88981192 561 225.38330078 C561.00303635 226.4147673 561.00303635 226.4147673 561.00613403 227.46707153 C560.98692643 231.45482754 560.63190669 235.21228271 559.8671875 239.12548828 C560.45274414 239.38958496 561.03830078 239.65368164 561.64160156 239.92578125 C563.95475153 241.17268986 565.57293639 242.51712273 567.4765625 244.32080078 C568.14486084 244.95018555 568.81315918 245.57957031 569.50170898 246.22802734 C570.19981689 246.89543945 570.8979248 247.56285156 571.6171875 248.25048828 C572.33656494 248.93336914 573.05594238 249.61625 573.79711914 250.31982422 C575.82545882 252.2499108 577.84689272 254.18698898 579.8671875 256.12548828 C581.11048828 257.30498047 581.11048828 257.30498047 582.37890625 258.50830078 C586.79860869 262.79352951 590.67929885 267.42521697 594.52734375 272.22705078 C596.85958451 275.11607022 599.26505796 277.93020098 601.6796875 280.75048828 C665.69541785 357.54954559 693.52438941 457.94518828 691.2265625 599.30322266 C689.04798612 622.47427685 685.80450345 645.3870531 681.57568359 668.27294922 C680.96219823 671.60885516 680.37513308 674.94809468 679.79296875 678.28955078 C668.74912955 738.73013595 640.93831767 797.85605971 609.49609375 850.12158203 C608.89450439 851.1433252 608.29291504 852.16506836 607.6730957 853.21777344 C605.8671875 856.12548828 605.8671875 856.12548828 603.87963867 858.71679688 C602.04976391 861.20420186 600.75342634 863.16416765 599.8671875 866.12548828 C600.73557533 870.51862316 602.81914349 874.03110341 605.0546875 877.87548828 C606.22591494 880.085803 607.38594041 882.30208694 608.53515625 884.52392578 C609.11056152 885.62961914 609.6859668 886.7353125 610.27880859 887.87451172 C616.97131368 901.57223655 620.28714652 917.17336031 622.8671875 932.12548828 C623.09277344 933.37974609 623.31835938 934.63400391 623.55078125 935.92626953 C626.88630167 958.44678329 626.01234564 982.81846269 621.8671875 1005.12548828 C621.72796875 1005.87604492 621.58875 1006.62660156 621.4453125 1007.39990234 C617.81472082 1026.08232205 611.05733161 1044.00135708 602.8671875 1061.12548828 C602.37001221 1062.16745361 602.37001221 1062.16745361 601.86279297 1063.23046875 C594.69218103 1078.14267931 586.40875731 1092.16433719 577.1796875 1105.87548828 C576.74243347 1106.52812653 576.30517944 1107.18076477 575.85467529 1107.85317993 C567.66107557 1120.08132322 559.1562708 1132.04080512 550.3515625 1143.83642578 C542.76149304 1154.02399024 535.59449242 1164.34873768 528.8671875 1175.12548828 C528.36896484 1175.92148438 527.87074219 1176.71748047 527.35742188 1177.53759766 C522.43067313 1185.42162274 517.52764024 1193.31954779 512.7734375 1201.30908203 C494.53479818 1231.86133136 474.68029113 1261.79041088 451.8671875 1289.12548828 C451.39039551 1289.70137695 450.91360352 1290.27726562 450.42236328 1290.87060547 C434.88542277 1309.63239923 418.14436821 1328.1716077 398.8671875 1343.12548828 C396.81985024 1344.82761952 394.77836985 1346.53518602 392.7421875 1348.25048828 C387.86812305 1352.32281367 382.91732905 1356.27411771 377.8671875 1360.12548828 C378.34027344 1360.57537109 378.81335937 1361.02525391 379.30078125 1361.48876953 C384.0359799 1366.09474249 388.26047437 1370.93835495 392.39453125 1376.08642578 C395.09507195 1379.40557375 397.87905383 1382.64103627 400.6796875 1385.87548828 C467.52460646 1463.53856169 472.8671875 1509.52479092 472.8671875 1620.12548828 C88.4171875 1620.12548828 -296.0328125 1620.12548828 -692.1328125 1620.12548828 C-688.75747607 1607.74925472 -688.75747607 1607.74925472 -687.2693634 1603.26098633 C-686.93182037 1602.23838211 -686.59427734 1601.21577789 -686.24650574 1600.16218567 C-685.88647964 1599.08144272 -685.52645355 1598.00069977 -685.15551758 1596.88720703 C-684.76803345 1595.71643112 -684.38054932 1594.54565521 -683.98132324 1593.33940125 C-682.92757547 1590.15833118 -681.87115418 1586.97817834 -680.81299043 1583.79857635 C-680.14813675 1581.80034405 -679.48405868 1579.80185562 -678.82022667 1577.80328369 C-676.49298919 1570.7971437 -674.16235648 1563.79214278 -671.82885742 1556.78808594 C-669.67247313 1550.3153106 -667.52396259 1543.83995846 -665.37908441 1537.36336231 C-663.52275932 1531.75938439 -661.66048202 1526.15740613 -659.79386061 1520.55684948 C-658.68566623 1517.23148317 -657.57973701 1513.90541054 -656.47999001 1510.57723999 C-650.01260431 1491.01559057 -643.0457159 1472.00952784 -633.4453125 1453.75048828 C-632.8486377 1452.6098291 -632.25196289 1451.46916992 -631.63720703 1450.29394531 C-605.60407526 1401.1446554 -568.41096609 1358.43504998 -524.5625 1324.38549805 C-521.4548215 1321.96912468 -518.38379217 1319.52057729 -515.359375 1317.00048828 C-506.0673113 1309.26918264 -496.43050221 1302.31039865 -486.36669922 1295.6171875 C-484.32078384 1294.25100794 -482.28885832 1292.86696792 -480.26171875 1291.47314453 C-467.6724004 1282.86072683 -454.42701249 1275.36080128 -441.0078125 1268.12548828 C-440.01515381 1267.58299438 -440.01515381 1267.58299438 -439.00244141 1267.02954102 C-434.20647704 1264.48549498 -429.32183854 1262.70690574 -424.1328125 1261.12548828 C-424.5860791 1260.44558838 -425.0393457 1259.76568848 -425.50634766 1259.06518555 C-436.046875 1243.25439453 -436.046875 1243.25439453 -438.13769531 1240.11035156 C-439.41381397 1238.20117061 -440.69880381 1236.29787069 -441.99511719 1234.40234375 C-442.54329102 1233.59812988 -443.09146484 1232.79391602 -443.65625 1231.96533203 C-444.37820557 1230.91720337 -444.37820557 1230.91720337 -445.11474609 1229.84790039 C-446.1328125 1228.12548828 -446.1328125 1228.12548828 -446.1328125 1226.12548828 C-447.41929687 1226.03912109 -448.70578125 1225.95275391 -450.03125 1225.86376953 C-505.21335689 1221.74245624 -554.95545675 1200.63857625 -595.328125 1162.74267578 C-597.92857424 1160.31607273 -600.58184472 1157.96800213 -603.2578125 1155.62548828 C-648.50454327 1114.76675525 -671.79384879 1051.35499885 -678.1328125 992.12548828 C-678.22780029 991.25134277 -678.32278809 990.37719727 -678.4206543 989.4765625 C-681.36607478 960.15850151 -677.85628996 930.97372637 -669.9453125 902.68798828 C-669.76307129 902.02468506 -669.58083008 901.36138184 -669.39306641 900.67797852 C-668.10040842 896.36351604 -666.36119739 892.55479361 -664.2421875 888.57861328 C-658.73880873 877.80240032 -655.83944016 870.07319182 -659.66259766 858.19873047 C-661.30138141 853.71423764 -663.09060126 849.28793255 -664.90994263 844.87408447 C-667.63428397 838.1553295 -669.27387613 831.26376907 -670.8203125 824.18798828 C-671.09681641 822.95564453 -671.37332031 821.72330078 -671.65820312 820.45361328 C-672.49732034 816.68053352 -673.31750717 812.90377971 -674.1328125 809.12548828 C-679.2384126 785.6019959 -685.15539294 762.61941848 -692.98828125 739.83251953 C-693.50976997 738.31312271 -693.50976997 738.31312271 -694.04179382 736.76303101 C-695.7843585 731.69392851 -697.5405745 726.63027813 -699.32202148 721.57470703 C-705.67677057 703.38342553 -710.62210335 684.87674303 -713.8828125 665.87548828 C-714.07746094 664.81587891 -714.27210938 663.75626953 -714.47265625 662.66455078 C-717.72399629 644.20392212 -718.54335357 625.84018113 -718.5078125 607.12548828 C-718.50693634 605.99063995 -718.50606018 604.85579163 -718.50515747 603.68655396 C-718.29042287 518.84409523 -689.57013891 435.60913342 -585.1328125 260.12548828 C-584.68373535 259.61856445 -584.2346582 259.11164063 -583.77197266 258.58935547 C-573.8496754 247.4471333 -563.54094434 236.50002786 -551.80859375 227.24658203 C-549.0361529 225.04886614 -546.3735965 222.74917881 -543.6953125 220.43798828 C-530.84436796 209.72330465 -516.75904723 200.2452118 -502.1328125 192.12548828 C-501.31538574 191.66964355 -500.49795898 191.21379883 -499.65576172 190.74414062 C-472.97330218 176.0068768 -444.80793943 166.11420554 -415.31274414 158.69702148 C-395.06022388 153.47288444 -380.59204417 142.48449833 -364.9387207 129.1862793 C-360.08091381 125.06456834 -355.14130073 121.06314953 -350.1328125 117.12548828 C-349.51873535 116.63741699 -348.9046582 116.1493457 -348.27197266 115.64648438 C-323.42022849 95.90312152 -297.23159073 78.88355693 -269.1328125 64.12548828 C-268.21226074 63.63725586 -267.29170898 63.14902344 -266.34326172 62.64599609 C-192.74712422 23.81958657 -108.88961651 6.76533468 0 0 Z " fill="#443325" transform="translate(718.1328125,-0.12548828125)"/>
<path d="M0 0 C78.9547507 -2.70523337 160.82072823 15.24411615 311.96826172 74.27050781 C313.03004639 74.83487549 313.03004639 74.83487549 314.11328125 75.41064453 C314.75837646 75.7613501 315.40347168 76.11205566 316.06811523 76.47338867 C318.0601204 77.40594568 318.0601204 77.40594568 320.8671875 76.12548828 C322.63418834 73.57510992 322.63418834 73.57510992 324.3515625 70.41064453 C325.04560655 69.23659511 325.74231313 68.06411636 326.44140625 66.89306641 C327.53294075 65.05113246 328.60687533 63.20677381 329.63720703 61.32983398 C335.34018624 51.0197583 335.34018624 51.0197583 341.27246094 48.92041016 C345.16204111 48.39180801 348.94415276 48.21393931 352.8671875 48.12548828 C355.30192792 47.86346723 357.73444648 47.57983742 360.1640625 47.27392578 C383.10413387 44.82515512 406.17070773 42.92527265 428.8671875 48.12548828 C430.10855469 48.39232422 431.34992188 48.65916016 432.62890625 48.93408203 C476.11921748 59.33293435 513.02794498 90.31653538 536.43212891 127.65698242 C550.81923907 151.28400913 561.08271801 179.19889535 561 207.13330078 C561.00095673 207.86241669 561.00191345 208.59153259 561.00289917 209.34274292 C561.00357429 210.87042325 561.00176706 212.39810657 560.99755859 213.92578125 C560.99218509 216.25153067 560.99753435 218.57708838 561.00390625 220.90283203 C561.00324565 222.39632204 561.00196487 223.88981192 561 225.38330078 C561.00303635 226.4147673 561.00303635 226.4147673 561.00613403 227.46707153 C560.98692643 231.45482754 560.63190669 235.21228271 559.8671875 239.12548828 C560.45274414 239.38958496 561.03830078 239.65368164 561.64160156 239.92578125 C563.95475153 241.17268986 565.57293639 242.51712273 567.4765625 244.32080078 C568.14486084 244.95018555 568.81315918 245.57957031 569.50170898 246.22802734 C570.19981689 246.89543945 570.8979248 247.56285156 571.6171875 248.25048828 C572.33656494 248.93336914 573.05594238 249.61625 573.79711914 250.31982422 C575.82545882 252.2499108 577.84689272 254.18698898 579.8671875 256.12548828 C581.11048828 257.30498047 581.11048828 257.30498047 582.37890625 258.50830078 C586.79860869 262.79352951 590.67929885 267.42521697 594.52734375 272.22705078 C596.85958451 275.11607022 599.26505796 277.93020098 601.6796875 280.75048828 C665.69541785 357.54954559 693.52438941 457.94518828 691.2265625 599.30322266 C689.04798612 622.47427685 685.80450345 645.3870531 681.57568359 668.27294922 C680.96219823 671.60885516 680.37513308 674.94809468 679.79296875 678.28955078 C668.74912955 738.73013595 640.93831767 797.85605971 609.49609375 850.12158203 C608.89450439 851.1433252 608.29291504 852.16506836 607.6730957 853.21777344 C605.8671875 856.12548828 605.8671875 856.12548828 603.87963867 858.71679688 C602.04976391 861.20420186 600.75342634 863.16416765 599.8671875 866.12548828 C600.73557533 870.51862316 602.81914349 874.03110341 605.0546875 877.87548828 C606.22591494 880.085803 607.38594041 882.30208694 608.53515625 884.52392578 C609.11056152 885.62961914 609.6859668 886.7353125 610.27880859 887.87451172 C616.97131368 901.57223655 620.28714652 917.17336031 622.8671875 932.12548828 C623.09277344 933.37974609 623.31835938 934.63400391 623.55078125 935.92626953 C626.88630167 958.44678329 626.01234564 982.81846269 621.8671875 1005.12548828 C621.72796875 1005.87604492 621.58875 1006.62660156 621.4453125 1007.39990234 C617.81472082 1026.08232205 611.05733161 1044.00135708 602.8671875 1061.12548828 C602.37001221 1062.16745361 602.37001221 1062.16745361 601.86279297 1063.23046875 C594.69218103 1078.14267931 586.40875731 1092.16433719 577.1796875 1105.87548828 C576.74243347 1106.52812653 576.30517944 1107.18076477 575.85467529 1107.85317993 C567.66107557 1120.08132322 559.1562708 1132.04080512 550.3515625 1143.83642578 C542.76149304 1154.02399024 535.59449242 1164.34873768 528.8671875 1175.12548828 C528.36896484 1175.92148438 527.87074219 1176.71748047 527.35742188 1177.53759766 C522.43067313 1185.42162274 517.52764024 1193.31954779 512.7734375 1201.30908203 C494.53479818 1231.86133136 474.68029113 1261.79041088 451.8671875 1289.12548828 C451.39039551 1289.70137695 450.91360352 1290.27726562 450.42236328 1290.87060547 C434.88542277 1309.63239923 418.14436821 1328.1716077 398.8671875 1343.12548828 C396.81985024 1344.82761952 394.77836985 1346.53518602 392.7421875 1348.25048828 C387.86812305 1352.32281367 382.91732905 1356.27411771 377.8671875 1360.12548828 C378.34027344 1360.57537109 378.81335937 1361.02525391 379.30078125 1361.48876953 C384.0359799 1366.09474249 388.26047437 1370.93835495 392.39453125 1376.08642578 C395.09507195 1379.40557375 397.87905383 1382.64103627 400.6796875 1385.87548828 C467.52460646 1463.53856169 472.8671875 1509.52479092 472.8671875 1620.12548828 C88.4171875 1620.12548828 -296.0328125 1620.12548828 -692.1328125 1620.12548828 C-688.75747607 1607.74925472 -688.75747607 1607.74925472 -687.2693634 1603.26098633 C-686.93182037 1602.23838211 -686.59427734 1601.21577789 -686.24650574 1600.16218567 C-685.88647964 1599.08144272 -685.52645355 1598.00069977 -685.15551758 1596.88720703 C-684.76803345 1595.71643112 -684.38054932 1594.54565521 -683.98132324 1593.33940125 C-682.92757547 1590.15833118 -681.87115418 1586.97817834 -680.81299043 1583.79857635 C-680.14813675 1581.80034405 -679.48405868 1579.80185562 -678.82022667 1577.80328369 C-676.49298919 1570.7971437 -674.16235648 1563.79214278 -671.82885742 1556.78808594 C-669.67247313 1550.3153106 -667.52396259 1543.83995846 -665.37908441 1537.36336231 C-663.52275932 1531.75938439 -661.66048202 1526.15740613 -659.79386061 1520.55684948 C-658.68566623 1517.23148317 -657.57973701 1513.90541054 -656.47999001 1510.57723999 C-650.01260431 1491.01559057 -643.0457159 1472.00952784 -633.4453125 1453.75048828 C-632.8486377 1452.6098291 -632.25196289 1451.46916992 -631.63720703 1450.29394531 C-605.60407526 1401.1446554 -568.41096609 1358.43504998 -524.5625 1324.38549805 C-521.4548215 1321.96912468 -518.38379217 1319.52057729 -515.359375 1317.00048828 C-506.0673113 1309.26918264 -496.43050221 1302.31039865 -486.36669922 1295.6171875 C-484.32078384 1294.25100794 -482.28885832 1292.86696792 -480.26171875 1291.47314453 C-467.6724004 1282.86072683 -454.42701249 1275.36080128 -441.0078125 1268.12548828 C-440.01515381 1267.58299438 -440.01515381 1267.58299438 -439.00244141 1267.02954102 C-434.20647704 1264.48549498 -429.32183854 1262.70690574 -424.1328125 1261.12548828 C-424.5860791 1260.44558838 -425.0393457 1259.76568848 -425.50634766 1259.06518555 C-436.046875 1243.25439453 -436.046875 1243.25439453 -438.13769531 1240.11035156 C-439.41381397 1238.20117061 -440.69880381 1236.29787069 -441.99511719 1234.40234375 C-442.54329102 1233.59812988 -443.09146484 1232.79391602 -443.65625 1231.96533203 C-444.37820557 1230.91720337 -444.37820557 1230.91720337 -445.11474609 1229.84790039 C-446.1328125 1228.12548828 -446.1328125 1228.12548828 -446.1328125 1226.12548828 C-447.41929687 1226.03912109 -448.70578125 1225.95275391 -450.03125 1225.86376953 C-505.21335689 1221.74245624 -554.95545675 1200.63857625 -595.328125 1162.74267578 C-597.92857424 1160.31607273 -600.58184472 1157.96800213 -603.2578125 1155.62548828 C-648.50454327 1114.76675525 -671.79384879 1051.35499885 -678.1328125 992.12548828 C-678.22780029 991.25134277 -678.32278809 990.37719727 -678.4206543 989.4765625 C-681.36607478 960.15850151 -677.85628996 930.97372637 -669.9453125 902.68798828 C-669.76307129 902.02468506 -669.58083008 901.36138184 -669.39306641 900.67797852 C-668.10040842 896.36351604 -666.36119739 892.55479361 -664.2421875 888.57861328 C-658.73880873 877.80240032 -655.83944016 870.07319182 -659.66259766 858.19873047 C-661.30138141 853.71423764 -663.09060126 849.28793255 -664.90994263 844.87408447 C-667.63428397 838.1553295 -669.27387613 831.26376907 -670.8203125 824.18798828 C-671.09681641 822.95564453 -671.37332031 821.72330078 -671.65820312 820.45361328 C-672.49732034 816.68053352 -673.31750717 812.90377971 -674.1328125 809.12548828 C-679.2384126 785.6019959 -685.15539294 762.61941848 -692.98828125 739.83251953 C-693.50976997 738.31312271 -693.50976997 738.31312271 -694.04179382 736.76303101 C-695.7843585 731.69392851 -697.5405745 726.63027813 -699.32202148 721.57470703 C-705.67677057 703.38342553 -710.62210335 684.87674303 -713.8828125 665.87548828 C-714.07746094 664.81587891 -714.27210938 663.75626953 -714.47265625 662.66455078 C-717.72399629 644.20392212 -718.54335357 625.84018113 -718.5078125 607.12548828 C-718.50693634 605.99063995 -718.50606018 604.85579163 -718.50515747 603.68655396 C-718.29042287 518.84409523 -689.57013891 435.60913342 -585.1328125 260.12548828 C-584.68373535 259.61856445 -584.2346582 259.11164063 -583.77197266 258.58935547 C-573.8496754 247.4471333 -563.54094434 236.50002786 -551.80859375 227.24658203 C-549.0361529 225.04886614 -546.3735965 222.74917881 -543.6953125 220.43798828 C-530.84436796 209.72330465 -516.75904723 200.2452118 -502.1328125 192.12548828 C-501.31538574 191.66964355 -500.49795898 191.21379883 -499.65576172 190.74414062 C-472.97330218 176.0068768 -444.80793943 166.11420554 -415.31274414 158.69702148 C-395.06022388 153.47288444 -380.59204417 142.48449833 -364.9387207 129.1862793 C-360.08091381 125.06456834 -355.14130073 121.06314953 -350.1328125 117.12548828 C-349.51873535 116.63741699 -348.9046582 116.1493457 -348.27197266 115.64648438 C-323.42022849 95.90312152 -297.23159073 78.88355693 -269.1328125 64.12548828 C-268.21226074 63.63725586 -267.29170898 63.14902344 -266.34326172 62.64599609 C-192.74712422 23.81958657 -108.88961651 6.76533468 0 0 Z M-16.1328125 97.12548828 C-18.15972613 97.21544007 -20.18683609 97.30404454 -22.21484375 97.36450195 C-68.06441182 98.83391422 -115.67481815 107.75767743 -159.1328125 122.12548828 C-159.9902002 122.4089209 -160.84758789 122.69235352 -161.73095703 122.984375 C-210.76992102 139.36808071 -257.03499818 163.65241364 -296.234375 197.61767578 C-299.83694158 200.73472126 -303.51057169 203.75453149 -307.2109375 206.75439453 C-309.33666127 208.47941369 -311.44881802 210.21647871 -313.5546875 211.96533203 C-338.23387413 232.29791674 -365.20096433 245.70820599 -396.2578125 253.18798828 C-408.22793591 256.0717628 -419.81355478 259.20142377 -431.1328125 264.12548828 C-432.03257812 264.51575195 -432.93234375 264.90601563 -433.859375 265.30810547 C-447.54074759 271.34210706 -460.01688643 278.37665175 -472.1328125 287.12548828 C-472.97610107 287.72441895 -472.97610107 287.72441895 -473.83642578 288.33544922 C-491.60743037 300.98748274 -507.67710571 315.95786237 -521.1328125 333.12548828 C-522.07319436 334.27843142 -523.01605109 335.42935892 -523.9609375 336.57861328 C-572.60603618 395.99259454 -607.25178774 479.54654634 -618.72705078 555.45019531 C-618.99846744 557.23971621 -619.28340431 559.02723661 -619.58154297 560.8125 C-624.34783374 589.67190322 -624.31939628 621.33362321 -619.1328125 650.12548828 C-618.87540283 651.57810059 -618.87540283 651.57810059 -618.61279297 653.06005859 C-616.26529076 665.86118324 -612.74385343 677.92293101 -608.23388672 690.10986328 C-601.50322841 708.54380817 -595.08671165 727.12991721 -590.1328125 746.12548828 C-589.86017578 747.16527832 -589.58753906 748.20506836 -589.30664062 749.27636719 C-585.93503568 762.22776059 -582.85776836 775.2104922 -580.1328125 788.31298828 C-575.04451323 812.38775148 -567.52026012 834.82378644 -558.31510925 857.59526062 C-554.63252708 866.74600436 -551.76426063 874.86214443 -555.41796875 884.52392578 C-557.20215256 888.1410638 -559.10050031 891.6437157 -561.1328125 895.12548828 C-562.1228125 896.82705078 -562.1228125 896.82705078 -563.1328125 898.56298828 C-564.13542826 900.28623412 -565.13804901 902.00947728 -566.14160156 903.73217773 C-585.93316512 938.26183336 -586.98778912 976.06641362 -576.8984375 1014.02392578 C-575.80685739 1017.78628003 -574.49855565 1021.45352017 -573.1328125 1025.12548828 C-572.67523408 1026.43995016 -572.21956534 1027.75507809 -571.765625 1029.07080078 C-562.79759047 1054.54677558 -548.16081263 1077.87086501 -527.1328125 1095.12548828 C-526.62540527 1095.55587402 -526.11799805 1095.98625977 -525.59521484 1096.4296875 C-509.16123615 1110.36294592 -491.80355062 1119.9071971 -471.0703125 1125.87548828 C-470.38718994 1126.07440674 -469.70406738 1126.2733252 -469.00024414 1126.47827148 C-457.74705563 1129.54230401 -446.35326422 1130.42686447 -434.734375 1130.32080078 C-433.53340179 1130.31797089 -432.33242859 1130.31514099 -431.09506226 1130.31222534 C-427.31587105 1130.30116508 -423.53693024 1130.27608813 -419.7578125 1130.25048828 C-417.17187846 1130.24044015 -414.58594065 1130.23131754 -412 1130.22314453 C-405.71085424 1130.20127237 -399.42185127 1130.16793951 -393.1328125 1130.12548828 C-392.99521011 1130.73919281 -392.85760773 1131.35289734 -392.71583557 1131.98519897 C-391.97659384 1134.6989701 -390.69118529 1136.53481201 -389.09765625 1138.85205078 C-388.46134277 1139.78823242 -387.8250293 1140.72441406 -387.16943359 1141.68896484 C-386.47672363 1142.69926758 -385.78401367 1143.70957031 -385.0703125 1144.75048828 C-379.14715587 1153.49324344 -373.47986973 1162.3398092 -368.0078125 1171.37548828 C-358.71670202 1186.64821977 -348.90385398 1201.62802739 -337.1328125 1215.12548828 C-336.46636719 1215.90150391 -335.79992187 1216.67751953 -335.11328125 1217.47705078 C-324.18040312 1229.93120138 -312.51409758 1241.34181782 -299.1328125 1251.12548828 C-298.49682129 1251.59519043 -297.86083008 1252.06489258 -297.20556641 1252.54882812 C-269.90261091 1272.61921263 -238.44621093 1291.35435547 -206.1328125 1302.12548828 C-206.98459487 1308.30091046 -208.92644525 1313.11544405 -211.9453125 1318.50048828 C-212.27660156 1319.10715332 -212.60789062 1319.71381836 -212.94921875 1320.33886719 C-215.19575271 1324.20441769 -217.11850805 1326.21071545 -221.1328125 1328.12548828 C-221.77138184 1328.47224609 -222.40995117 1328.81900391 -223.06787109 1329.17626953 C-229.14080367 1332.25801587 -234.33360287 1332.68359444 -241.0703125 1332.50048828 C-242.07594238 1332.48687256 -243.08157227 1332.47325684 -244.11767578 1332.45922852 C-251.77668217 1332.2996406 -259.30091228 1331.59704592 -266.89453125 1330.63720703 C-273.9548496 1329.75204723 -281.02507427 1329.37907126 -288.1328125 1329.12548828 C-288.96312988 1329.09148926 -289.79344727 1329.05749023 -290.64892578 1329.02246094 C-341.88042999 1327.15863705 -389.36759505 1345.58607631 -431.1328125 1374.12548828 C-431.78330566 1374.56747559 -432.43379883 1375.00946289 -433.10400391 1375.46484375 C-442.25517859 1381.7194897 -450.82556185 1388.6297634 -459.37158203 1395.68017578 C-461.66682112 1397.56370994 -463.99156185 1399.40862391 -466.3203125 1401.25048828 C-483.95731286 1415.36008857 -501.1181802 1430.34634161 -515.1328125 1448.12548828 C-515.62587891 1448.74746094 -516.11894531 1449.36943359 -516.62695312 1450.01025391 C-543.59875253 1484.14443441 -543.59875253 1484.14443441 -558.1328125 1524.12548828 C-249.5828125 1524.12548828 58.9671875 1524.12548828 376.8671875 1524.12548828 C375.98078605 1518.80707957 375.3880263 1516.80565534 372.69140625 1512.48486328 C371.70587769 1510.89242798 371.70587769 1510.89242798 370.70043945 1509.26782227 C369.9857551 1508.13668627 369.27049161 1507.00591601 368.5546875 1505.87548828 C367.82141458 1504.70397254 367.08858975 1503.53217622 366.35620117 1502.36010742 C364.2106984 1498.93725566 362.04208441 1495.52974181 359.8671875 1492.12548828 C359.2990332 1491.23522949 358.73087891 1490.3449707 358.14550781 1489.42773438 C348.36854621 1474.20853077 337.51662296 1459.93789452 325.62109375 1446.31689453 C323.17493122 1443.50871 320.85978519 1440.61352349 318.5546875 1437.68798828 C310.23764497 1427.46904492 300.65806957 1418.22235609 290.3125 1410.07861328 C288.06269301 1408.28164284 285.9710089 1406.40155492 283.8671875 1404.43798828 C276.37847621 1397.71425288 268.04688703 1391.967639 259.8671875 1386.12548828 C259.23039063 1385.66883789 258.59359375 1385.2121875 257.9375 1384.74169922 C238.3725191 1370.83969334 217.28351547 1360.52441191 194.8671875 1352.12548828 C193.01264267 1351.42631709 191.16090042 1350.71965165 189.3125 1350.00439453 C188.5198877 1349.70090088 187.72727539 1349.39740723 186.91064453 1349.0847168 C183.89007464 1347.66681726 182.37942659 1346.07795509 180.8671875 1343.12548828 C180.78556342 1339.77890103 181.45683238 1338.56417336 183.734375 1336.12939453 C188.24926013 1333.24144431 192.83214477 1332.58517935 198.0546875 1331.62548828 C200.24615799 1331.19091629 202.43756391 1330.75601851 204.62890625 1330.32080078 C207.49515847 1329.76726416 210.36173895 1329.21833642 213.23291016 1328.69091797 C277.15986576 1316.89958131 339.16690344 1278.49369317 378.8671875 1227.12548828 C379.76634792 1226.02392385 380.66892352 1224.92514153 381.57421875 1223.82861328 C399.15317265 1202.43615816 413.65446553 1178.88173085 427.97412109 1155.24804688 C443.9179011 1128.94924029 460.57964528 1103.35585693 478.8671875 1078.62548828 C513.81051677 1031.66372445 513.81051677 1031.66372445 528.8671875 976.12548828 C528.91633301 975.21911621 528.96547852 974.31274414 529.01611328 973.37890625 C530.22383852 946.71804694 523.9539255 925.08242443 509.6171875 902.68798828 C501.2363767 889.53441482 498.99801293 880.50647381 500.8671875 865.12548828 C501.00737305 863.86961914 501.00737305 863.86961914 501.15039062 862.58837891 C503.82126805 839.29337513 513.34677867 821.85570909 525.8046875 802.31298828 C532.41902723 791.91692224 538.1379711 781.02648381 543.8671875 770.12548828 C544.37540039 769.16642578 544.88361328 768.20736328 545.40722656 767.21923828 C557.62339587 744.04432948 567.15351351 719.8850283 575.4296875 695.06298828 C575.8016626 693.94929871 575.8016626 693.94929871 576.18115234 692.81311035 C581.56051887 676.62006414 585.56811724 660.51190684 588.3671875 643.68798828 C588.51681946 642.79996521 588.66645142 641.91194214 588.82061768 640.99700928 C590.84689993 628.94355224 592.70554062 616.87641564 594.2421875 604.75048828 C594.39751953 603.54336182 594.55285156 602.33623535 594.71289062 601.0925293 C600.12151051 556.16579121 597.74452671 510.23707047 587.8671875 466.12548828 C587.70782715 465.41166992 587.5484668 464.69785156 587.38427734 463.96240234 C586.38611045 459.6285752 585.18234334 455.37170463 583.8671875 451.12548828 C583.60599121 450.27374023 583.34479492 449.42199219 583.07568359 448.54443359 C569.87940479 406.03361607 548.60249551 363.73109901 517.8671875 331.12548828 C516.78009356 329.83698502 515.6966862 328.54536142 514.6171875 327.25048828 C506.0797332 317.49620142 495.92915167 309.41494155 485.68945312 301.54492188 C483.79646184 300.07039732 481.93090063 298.56644204 480.0703125 297.05126953 C479.43730225 296.53725586 478.80429199 296.02324219 478.15209961 295.49365234 C476.88610744 294.46247478 475.62383944 293.42670686 474.36547852 292.38623047 C471.43791618 290.00654987 468.60965784 287.89077935 465.25390625 286.15283203 C461.93214727 284.37680344 459.4267902 282.89300094 456.8671875 280.12548828 C453.79398225 269.00153593 458.45765729 256.44087305 461.234375 245.63720703 C467.03730779 222.60457872 467.51819297 200.13848204 455.23022461 179.21484375 C444.37977438 161.82320047 428.71988921 147.83016573 408.91015625 141.73486328 C403.57120369 140.66570205 398.28161439 140.8111022 392.8671875 141.12548828 C388.78941287 149.01031085 388.78941287 149.01031085 385.2265625 157.13330078 C381.34572406 166.75874117 377.12552072 174.67378714 368.41796875 180.86767578 C362.87772598 182.83022603 357.44789004 182.52307415 351.6171875 182.43798828 C350.36389648 182.42670898 349.11060547 182.41542969 347.81933594 182.40380859 C318.44485557 181.97305341 296.16377545 173.99672529 270.171875 160.81298828 C268.95359009 160.19665527 268.95359009 160.19665527 267.71069336 159.56787109 C266.18203232 158.79245001 264.65382157 158.01612209 263.12844849 157.23425293 C253.26651972 152.18196527 243.31158761 147.56758286 233.0546875 143.37548828 C232.3357431 143.08034332 231.61679871 142.78519836 230.87606812 142.48110962 C161.55975842 114.12602808 84.70238652 95.76354316 9.50317383 95.99511719 C7.40634142 96.00054876 5.30971722 95.9950904 3.21289062 95.98876953 C-3.32819828 95.98563192 -9.65782082 96.19234867 -16.1328125 97.12548828 Z " fill="#FDFDFD" transform="translate(718.1328125,-0.12548828125)"/>
<path d="M0 0 C3.35820946 0.00462318 6.71605605 -0.00227293 10.07421875 -0.02050781 C30.41646852 -0.12979927 50.25513099 0.37080048 70.42822266 3.31567383 C71.29362671 3.43860809 72.15903076 3.56154236 73.05065918 3.6882019 C78.29537149 4.44168491 83.51966376 5.28893551 88.74072266 6.19067383 C89.49683838 6.31917725 90.2529541 6.44768066 91.03198242 6.58007812 C109.67638756 9.75471343 127.84570524 13.84684715 145.89672852 19.52416992 C147.71288475 20.09201431 149.5317455 20.65123617 151.35229492 21.20483398 C183.07907207 30.85328454 213.85147438 42.84518847 244.42041016 55.65161133 C245.03638062 55.90963531 245.65235107 56.1676593 246.2869873 56.4335022 C246.89079224 56.68643036 247.49459717 56.93935852 248.11669922 57.19995117 C263.04282865 63.44747971 278.11094569 69.09963753 293.42822266 74.31567383 C294.79309814 74.78360352 294.79309814 74.78360352 296.18554688 75.26098633 C323.02083087 84.38241492 350.92577719 89.73277591 377.55322266 76.81567383 C384.9108838 73.03934532 391.33357213 68.09737801 397.84619141 63.04223633 C408.07685288 55.14441264 408.07685288 55.14441264 412.41259766 55.46020508 C421.33034322 59.24506221 426.79229032 73.5930582 430.51806641 81.87817383 C434.35530317 92.15472207 434.17830533 106.98736281 429.74072266 116.97192383 C425.4594139 124.61711804 419.98038666 129.83405698 413.07666016 135.17504883 C408.13625434 139.1681792 403.86279584 142.66477739 402.80322266 149.12817383 C402.88023874 151.76589988 403.04358185 152.90440455 404.86352539 154.8503418 C410.33453008 158.79299797 416.02673621 161.75381405 422.11572266 164.62817383 C436.57598133 171.68245455 448.45020596 180.66658433 460.42822266 191.31567383 C460.94723145 191.77151855 461.46624023 192.22736328 462.00097656 192.69702148 C467.236662 197.29581992 472.21496652 201.93935966 476.70166016 207.27661133 C478.63316389 209.55770849 480.65237749 211.74302554 482.67822266 213.94067383 C487.75672909 219.57006909 492.38170486 225.51213146 497.01660156 231.50561523 C498.4022949 233.28242783 499.80750661 235.04154816 501.22119141 236.79614258 C511.69064583 249.82586119 520.56423679 263.57115062 528.42822266 278.31567383 C528.77095215 278.95585449 529.11368164 279.59603516 529.46679688 280.25561523 C548.38586068 315.9292353 558.30055193 356.29381072 562.42822266 396.31567383 C562.52031006 397.14510498 562.61239746 397.97453613 562.70727539 398.82910156 C565.5026925 427.18261795 564.19946727 456.28702632 559.42822266 484.31567383 C559.03855714 486.75181697 558.64923539 489.18801512 558.26025391 491.62426758 C552.64341483 525.75612605 542.29873073 559.60515865 528.42822266 591.31567383 C527.85998779 592.6249585 527.85998779 592.6249585 527.28027344 593.96069336 C492.69337906 673.03420399 492.69337906 673.03420399 472.42822266 688.31567383 C471.76822266 688.31567383 471.10822266 688.31567383 470.42822266 688.31567383 C470.29614306 675.12624128 470.16565511 661.93679397 470.03707123 648.74732685 C469.97728513 642.61962947 469.91699787 636.49193796 469.85546875 630.36425781 C469.72823188 617.66475372 469.60679188 604.96524428 469.50349426 592.2655201 C469.45952557 586.87175174 469.40970477 581.47814869 469.34911346 576.08454227 C469.31491842 572.82178996 469.29406772 569.55899876 469.27197266 566.29614258 C469.2496759 564.70978752 469.2496759 564.70978752 469.22692871 563.09138489 C469.18384761 552.04238526 470.8721223 541.29307101 473.92822266 530.69067383 C475.88433916 523.61394568 477.45349775 516.6042884 478.42822266 509.31567383 C468.57961578 511.65960114 460.72298918 515.52512201 454.81884766 523.97583008 C453.19722115 526.70435333 451.85103342 529.51078193 450.49072266 532.37817383 C447.98003471 537.58406223 445.21095727 541.94155283 440.42822266 545.31567383 C438.21728516 545.99145508 438.21728516 545.99145508 436.42822266 546.31567383 C431.76322495 538.29230971 427.31543162 530.27669069 423.49072266 521.81567383 C417.07853226 507.85205523 408.53638437 495.90195801 399.01416016 483.90161133 C395.44863848 479.38734078 392.07963464 474.74893327 388.74072266 470.06567383 C379.86742514 457.66226877 370.358165 445.88350955 360.42822266 434.31567383 C359.4489025 433.17127391 358.4697383 432.02674052 357.49072266 430.88208008 C356.49072518 429.71410917 355.49072516 428.54614044 354.49072266 427.37817383 C353.99121094 426.79390625 353.49169922 426.20963867 352.97705078 425.60766602 C350.49120144 422.70430916 347.99215501 419.81502531 345.45947266 416.95239258 C325.36980522 394.1344987 308.75572217 368.88942031 305.53979492 338.03857422 C304.92693918 332.71394894 303.85372228 329.48927108 300.42822266 325.31567383 C299.76822266 324.98567383 299.10822266 324.65567383 298.42822266 324.31567383 C298.42822266 333.22567383 298.42822266 342.13567383 298.42822266 351.31567383 C295.12822266 351.64567383 291.82822266 351.97567383 288.42822266 352.31567383 C288.39083984 353.42942383 288.35345703 354.54317383 288.31494141 355.69067383 C286.60761643 398.39266383 266.1447128 434.76794004 238.42822266 466.31567383 C237.66638672 467.1896582 236.90455078 468.06364258 236.11962891 468.96411133 C227.28221341 478.95149355 217.9657242 488.13186326 207.42822266 496.31567383 C206.86570801 496.75991699 206.30319336 497.20416016 205.72363281 497.66186523 C176.18266221 520.92907121 142.32470854 537.66161097 106.67822266 549.25317383 C105.8094751 549.53612305 104.94072754 549.81907227 104.0456543 550.1105957 C95.18605954 552.88406369 86.41165108 554.60058947 77.11572266 554.62817383 C75.79958984 554.64493164 74.48345703 554.66168945 73.12744141 554.67895508 C68.40724342 554.21540871 64.94489173 552.94067641 61.67822266 549.44067383 C55.23995083 538.49561172 58.22141892 525.258916 60.92822266 513.56567383 C66.31390904 489.90015775 63.36999579 470.42833639 51.42822266 449.31567383 C50.43439363 447.9777345 49.43547136 446.64353972 48.42822266 445.31567383 C47.69193915 443.80817366 46.98506889 442.28606517 46.30322266 440.75317383 C43.23912493 434.50571709 38.99466912 429.52276368 34.42822266 424.31567383 C33.28933594 423.01049805 33.28933594 423.01049805 32.12744141 421.67895508 C29.92465331 419.19463621 27.68901437 416.74724477 25.42822266 414.31567383 C24.79400391 413.62731445 24.15978516 412.93895508 23.50634766 412.22973633 C13.51432709 401.78353301 1.31862144 392.15852659 -13.57177734 391.31567383 C-14.11036368 398.93508645 -12.05996855 403.77334865 -7.75927734 409.81567383 C2.11894687 423.74672652 5.16515405 440.26801381 3.42822266 457.31567383 C1.89876849 462.63156049 -0.72395822 466.53075646 -5.57177734 469.31567383 C-13.78808727 472.31951534 -21.64128565 472.79250972 -30.32177734 472.69067383 C-31.59384033 472.67979736 -32.86590332 472.6689209 -34.17651367 472.65771484 C-90.14142107 471.72911297 -145.44521722 447.01697362 -185.57177734 408.31567383 C-186.56583727 407.39561177 -187.56063802 406.47634951 -188.55615234 405.55786133 C-207.89544897 387.38713066 -220.07449458 363.12697268 -228.57177734 338.31567383 C-228.84328613 337.56012207 -229.11479492 336.80457031 -229.39453125 336.02612305 C-234.1700531 322.64935244 -236.36140877 308.88544539 -238.48046875 294.89160156 C-240.22366399 280.05487385 -240.22366399 280.05487385 -248.57177734 268.31567383 C-252.24139879 266.4808631 -255.79880159 266.75769822 -259.66943359 267.97583008 C-263.18672502 269.7048911 -265.15613327 271.39867619 -266.79368591 275.01145935 C-269.24904324 283.03356373 -270.19545327 290.35778838 -270.29443359 298.72583008 C-270.34185951 300.59627235 -270.34185951 300.59627235 -270.39024353 302.50450134 C-270.48886538 306.46222544 -270.56371005 310.41985803 -270.63427734 314.37817383 C-271.02203284 334.19086933 -272.14492216 353.64405911 -274.57177734 373.31567383 C-274.75389907 374.88109738 -274.93474177 376.44667077 -275.11376953 378.01245117 C-282.49556333 441.40637301 -300.82985903 504.75564378 -342.57177734 554.31567383 C-343.49742958 555.46186288 -344.42184731 556.60904968 -345.34521484 557.75708008 C-352.66548575 566.73298183 -360.52105782 573.43958004 -370.02880859 580.01489258 C-374.7025959 583.3186272 -377.3546446 585.95760303 -379.57177734 591.31567383 C-380.07643102 597.99319275 -378.64894693 603.50484379 -376.75927734 609.87817383 C-376.20552574 611.84999832 -375.65474368 613.82265917 -375.10693359 615.79614258 C-374.70885498 617.22385986 -374.70885498 617.22385986 -374.30273438 618.68041992 C-368.54876135 639.42470345 -369.60965807 660.30214945 -373.57177734 681.31567383 C-373.72743164 682.16210449 -373.88308594 683.00853516 -374.04345703 683.88061523 C-379.50208762 712.66099986 -390.54107459 740.71042199 -402.57177734 767.31567383 C-421.57313795 768.51323857 -435.59099911 760.99993679 -451.00927734 750.69067383 C-457.46138776 746.53748252 -464.36827056 743.84030265 -471.57177734 741.31567383 C-472.65974609 740.93411133 -473.74771484 740.55254883 -474.86865234 740.15942383 C-482.02866104 737.89836845 -489.01272798 736.78944848 -496.44677734 735.87817383 C-511.60946136 733.99498065 -525.138889 731.29593726 -535.27894592 719.02183533 C-537.34219666 716.29894439 -538.90310835 713.35284386 -540.40771484 710.30004883 C-540.74660736 709.6155365 -541.08549988 708.93102417 -541.43466187 708.22576904 C-545.42825695 699.88663471 -548.34899102 691.17293035 -551.25439453 682.40844727 C-552.19229448 679.57919675 -553.14606185 676.75571343 -554.10302734 673.93286133 C-559.87916334 656.80833558 -565.27484914 639.62536119 -569.32177734 622.00317383 C-569.61181641 620.78823242 -569.90185547 619.57329102 -570.20068359 618.3215332 C-573.80530504 602.80849341 -574.94476915 587.97953329 -574.88427734 572.12817383 C-574.88345154 571.21235535 -574.88262573 570.29653687 -574.8817749 569.35296631 C-574.84497479 551.54829648 -573.69264021 534.09517858 -570.54052734 516.54223633 C-569.30003905 509.25748966 -568.88157584 501.93417726 -568.44677734 494.56567383 C-568.36010453 493.17501339 -568.2728681 491.78438796 -568.18505859 490.39379883 C-567.97511642 487.03472398 -567.77080173 483.67541019 -567.57177734 480.31567383 C-569.25787109 480.37754883 -569.25787109 480.37754883 -570.97802734 480.44067383 C-575.86098293 480.44067383 -580.34371031 479.45533819 -585.07177734 478.31567383 C-585.89419922 478.12489258 -586.71662109 477.93411133 -587.56396484 477.73754883 C-589.56840141 477.27140079 -591.57036598 476.79464407 -593.57177734 476.31567383 C-593.82728351 462.48492824 -593.41292153 449.02765194 -591.57177734 435.31567383 C-591.46994141 434.52515625 -591.36810547 433.73463867 -591.26318359 432.92016602 C-586.46124745 396.120143 -575.25563681 361.2332751 -559.64794922 327.64428711 C-558.64203877 325.46770502 -557.65842081 323.28257415 -556.68115234 321.09301758 C-551.54094893 309.70561525 -545.42513147 298.91822868 -539.17822266 288.10668945 C-537.69732508 285.53379871 -536.23622008 282.95098282 -534.78271484 280.36254883 C-519.78762594 253.80484918 -501.79714024 229.84726148 -480.87646484 207.70385742 C-479.78315908 206.54058336 -478.70663131 205.36157125 -477.63427734 204.17895508 C-454.09903007 179.12022082 -420.70537125 160.7025018 -387.0534668 154.70874023 C-372.22454898 152.05211614 -358.20852037 147.08580666 -345.45458984 138.99926758 C-344.77471512 138.57104202 -344.09484039 138.14281647 -343.3943634 137.70161438 C-333.88554436 131.66672272 -324.58177183 125.32005086 -315.25927734 119.00317383 C-313.4215499 117.76139584 -311.58365982 116.5198585 -309.74560547 115.27856445 C-300.90942917 109.30751657 -292.08711237 103.31604483 -283.27880859 97.30395508 C-282.1581324 96.54063118 -282.1581324 96.54063118 -281.01481628 95.7618866 C-275.80383581 92.19866552 -270.67528498 88.53086911 -265.57177734 84.81567383 C-251.63191824 74.69471517 -237.56434483 64.82440663 -222.57177734 56.31567383 C-221.76933594 55.85837891 -220.96689453 55.40108398 -220.14013672 54.92993164 C-182.30497031 33.49753902 -141.99646209 19.49305824 -99.57177734 10.31567383 C-98.15856201 10.00654053 -98.15856201 10.00654053 -96.71679688 9.69116211 C-86.74367953 7.5288407 -76.71274252 5.78625805 -66.63427734 4.19067383 C-65.64717773 4.03187744 -64.66007813 3.87308105 -63.64306641 3.70947266 C-60.29087904 3.19704839 -56.93541974 2.74677918 -53.57177734 2.31567383 C-52.90629883 2.22633575 -52.24082031 2.13699768 -51.55517578 2.04495239 C-34.43237919 -0.18008902 -17.23310283 -0.02568924 0 0 Z " fill="#996943" transform="translate(720.57177734375,127.684326171875)"/>
<path d="M0 0 C1.07830078 -0.020625 2.15660156 -0.04125 3.26757812 -0.0625 C13.80099389 -0.11298971 23.39926767 2.07344707 33 6.375 C34.0055896 6.82286865 34.0055896 6.82286865 35.03149414 7.27978516 C55.29014896 16.65723755 67.63237952 33.29149809 79.875 51.25 C87.01479564 61.7585098 87.01479564 61.7585098 97.0625 69.25 C100.86648231 69.88399705 102.60955004 69.47647498 106.0625 67.75 C113.53003634 61.52705305 117.90426723 53.01457012 121.2734375 44.015625 C121.67820312 42.93796875 122.08296875 41.8603125 122.5 40.75 C123.02400391 39.24953125 123.02400391 39.24953125 123.55859375 37.71875 C125.61621047 34.34105191 127.2678921 34.22066278 131.0625 33.25 C133.67098566 33.04271466 136.1703535 32.9225014 138.77734375 32.9140625 C139.51014053 32.9074057 140.24293732 32.9007489 140.99794006 32.89389038 C142.54685986 32.88380331 144.09582278 32.87907214 145.64477539 32.87939453 C147.96252699 32.87506992 150.27829391 32.83884856 152.59570312 32.80078125 C162.64647154 32.72640967 171.52634805 33.9154438 181.0625 37.25 C182.85200393 39.03950393 182.70403428 41.74622881 183.078125 44.171875 C183.27438477 45.41428955 183.47064453 46.6567041 183.67285156 47.93676758 C183.77666138 48.59931549 183.88047119 49.2618634 183.98742676 49.94448853 C191.56124098 97.83542518 207.89085025 146.6570859 247.91796875 177.30078125 C262.49337709 187.8915588 278.75302929 196.25144502 296.0625 201.25 C297.22676514 201.61182373 297.22676514 201.61182373 298.41455078 201.98095703 C313.10225835 206.40152921 327.65911542 206.72790831 342.875 206.75 C344.30628235 206.75673737 344.30628235 206.75673737 345.76647949 206.76361084 C388.40946889 206.84511993 429.95769009 193.1188572 461.0625 163.25 C462.29226563 162.09757812 462.29226563 162.09757812 463.546875 160.921875 C492.49598411 133.05161468 509.13613883 91.85437425 518.17529297 53.44287109 C520.29042968 44.56647239 520.29042968 44.56647239 523.0625 41.25 C539.4797858 31.42181404 562.00248326 29.32383245 580.6171875 33.49609375 C590.1828666 36.4452568 600.65548473 41.4385677 606.0625 50.25 C608.56081999 57.01459633 609.72586484 63.80518526 610.5625 70.9375 C612.710403 87.82098355 615.62199511 104.09785254 623.125 119.5 C623.61033203 120.50144043 624.09566406 121.50288086 624.59570312 122.53466797 C645.5793954 164.94546604 685.10768559 193.16414715 729.26171875 208.09960938 C735.46216916 210.12455388 741.66483476 211.95403928 748.0625 213.25 C748.97644531 213.45367188 749.89039063 213.65734375 750.83203125 213.8671875 C775.33909387 218.55661233 801.20836096 214.82817077 824.0625 205.25 C824.75118164 204.96141113 825.43986328 204.67282227 826.14941406 204.37548828 C843.08137989 197.12509346 858.25910085 187.03663728 873.27612305 176.46459961 C883.40978749 169.40687342 890.57610437 165.52404677 903.0625 166.25 C904.68231239 175.8784748 905.3870259 185.10637477 905.3125 194.875 C905.30500732 196.18533203 905.29751465 197.49566406 905.28979492 198.84570312 C904.7049393 252.03815887 883.30411052 299.59645324 846.0625 337.25 C838.58661401 344.53810863 830.37280584 350.95032523 822.0625 357.25 C821.23540527 357.87841797 821.23540527 357.87841797 820.39160156 358.51953125 C810.12393216 366.25250402 799.200477 372.85344615 788.0625 379.25 C787.35786621 379.65605469 786.65323242 380.06210938 785.92724609 380.48046875 C736.63178834 408.56031151 679.53310777 421.25598465 623.98071289 429.65722656 C620.38136962 430.20175927 616.78435831 430.75965304 613.1875 431.3203125 C565.2800982 438.68266514 516.25518075 441.55589888 468.0625 435.25 C466.35682861 435.0331958 466.35682861 435.0331958 464.61669922 434.81201172 C428.92792728 430.18635346 393.33642073 422.26386666 359.0625 411.25 C358.06541016 410.93482422 357.06832031 410.61964844 356.04101562 410.29492188 C293.15819642 390.34353974 237.58066063 360.03873017 190.0625 314.25 C189.1511731 313.37263184 189.1511731 313.37263184 188.22143555 312.47753906 C184.40700049 308.74124533 180.99068093 304.86506906 177.75 300.625 C177.04798462 299.71560669 177.04798462 299.71560669 176.33178711 298.7878418 C175.36960948 297.54098279 174.40906411 296.29286241 173.45019531 295.04345703 C172.16909047 293.38775749 170.86763149 291.75158456 169.5546875 290.12109375 C153.76250041 270.24121837 141.55409034 247.52129662 131.6875 224.1875 C128.78019852 217.31401262 125.25476892 211.69555033 120.0625 206.25 C119.32386719 205.39921875 119.32386719 205.39921875 118.5703125 204.53125 C116.23061957 202.54311715 113.80680375 202.66848719 110.84765625 202.76953125 C102.77209651 204.16265025 95.29894975 208.48615204 88.25 212.5 C72.82632656 221.03890327 54.87822153 217.52376626 38.66455078 213.03710938 C3.17942595 202.30300894 -26.61257005 172.64639574 -43.83203125 140.54296875 C-47.62779977 133.08544097 -50.28338267 125.16792354 -52.9375 117.25 C-53.26492187 116.32832031 -53.59234375 115.40664063 -53.9296875 114.45703125 C-62.65601614 88.32302642 -62.14828881 57.99723535 -50.14257812 33.14990234 C-47.10359627 27.21273551 -43.47065664 22.15192534 -38.9375 17.25 C-38.3703125 16.55777344 -37.803125 15.86554687 -37.21875 15.15234375 C-27.71754597 4.33847337 -13.87661436 0.06428078 0 0 Z " fill="#F6D6B5" transform="translate(220.9375,888.75)"/>
<path d="M0 0 C4.76294229 1.1206923 6.81491836 3.75198232 9.5078125 7.58203125 C13.38459916 13.86404943 16.37394312 19.49914086 16 27 C17.65 27 19.3 27 21 27 C21 29.31 21 31.62 21 34 C22.32 34 23.64 34 25 34 C24.67 35.98 24.34 37.96 24 40 C24.69867188 40.08378906 25.39734375 40.16757812 26.1171875 40.25390625 C35.22856683 42.61200036 43.52131914 51.21680277 50.2109375 57.47265625 C55.20541912 61.99846803 60.5829828 66.00232073 66 70 C66.61020996 70.45600586 67.22041992 70.91201172 67.84912109 71.38183594 C101.04779574 96.07954794 138.24318836 112.75712284 179 120 C179.68481445 120.12842285 180.36962891 120.2568457 181.07519531 120.38916016 C200.93006873 124.034829 221.50362097 121.79072905 241.4375 120 C268.1632342 117.62667994 268.1632342 117.62667994 281 118 C281.41555582 130.67445244 280.16393238 143.40598179 272.875 154.125 C272.25625 154.74375 271.6375 155.3625 271 156 C270.34 156 269.68 156 269 156 C269.061875 157.9490625 269.061875 157.9490625 269.125 159.9375 C269.13510389 163.19600559 268.84938375 165.98467276 268 169.125 C265.54983363 179.2253261 265.82749884 191.3928532 270 201 C274.56003202 207.11711613 282.68714147 210.47662046 290 212 C313.79833138 213.51548443 338.33221446 211.66064821 361 204 C362.76234524 203.4496548 364.52543926 202.90170463 366.2890625 202.35546875 C380.36630528 197.91762146 393.79891812 192.45192462 407.20263672 186.28564453 C409.71309641 185.13185847 412.23137556 183.99815895 414.75390625 182.87109375 C439.89016786 171.51576422 461.44389847 155.53858049 481.7421875 137.03515625 C483.77243425 135.20512415 485.84503758 133.44533786 487.9375 131.6875 C496.93234006 123.8351497 504.62868272 114.34725627 512 105 C512.72292236 104.08589355 512.72292236 104.08589355 513.46044922 103.15332031 C525.36596832 88.03861642 535.81351763 72.1552653 545.8125 55.72753906 C546.58980469 54.45475098 546.58980469 54.45475098 547.3828125 53.15625 C548.06947998 52.02413086 548.06947998 52.02413086 548.77001953 50.86914062 C550 49 550 49 552 47 C554.2734375 46.57421875 554.2734375 46.57421875 557 47 C559.08579324 48.54492136 560.79710055 50.00543733 562.625 51.8125 C563.14425049 52.30878906 563.66350098 52.80507813 564.19848633 53.31640625 C565.81106639 54.86565678 567.40552109 56.43215327 569 58 C569.96939172 58.93167717 570.93941945 59.86269314 571.91015625 60.79296875 C577.14247572 65.89282443 581.95559224 71.16311057 586.50390625 76.87890625 C588.38133326 79.22642453 590.28075834 81.53983503 592.21484375 83.83984375 C606.01440306 100.28244821 618.08652053 117.51340608 629 136 C629.71518799 137.20946289 629.71518799 137.20946289 630.44482422 138.44335938 C641.7250529 157.72674645 650.62630383 178.26397909 658.05908203 199.31152344 C660.85809124 207.12695644 664.35136323 215.18826771 672.19140625 219.09082031 C674.77358937 220.16875043 677.3729442 221.16174621 680 222.125 C690.78786021 226.17435622 690.78786021 226.17435622 695 229 C694.9104347 231.8135857 694.80332344 234.62495728 694.6875 237.4375 C694.66494141 238.20126953 694.64238281 238.96503906 694.61914062 239.75195312 C694.31475194 246.64220612 693.13287862 253.31368377 691.8894043 260.08081055 C690.11802429 269.7546241 688.61980042 279.47745652 687.0625 289.1875 C686.88602936 290.28251831 686.70955872 291.37753662 686.52774048 292.5057373 C684.80217341 303.22916263 683.07833633 313.94880261 681.6953125 324.72265625 C681.5590168 325.78343636 681.5590168 325.78343636 681.41996765 326.86564636 C681.01934186 330.02319251 680.63847971 333.18191244 680.27954102 336.34448242 C679.61708256 341.85042207 678.95772472 346.2610125 676 351 C668.41837484 347.58971634 663.56842215 340.39188415 658.75 333.875 C653.08359152 326.34542732 647.19099393 319.10198102 641 312 C640.20335937 311.05640625 639.40671875 310.1128125 638.5859375 309.140625 C615.71292585 282.76588192 579.32679564 268.07425267 545.02685547 265.19482422 C527.80970773 264.08663871 510.91850947 264.56747337 494 268 C492.9176709 268.20882812 492.9176709 268.20882812 491.81347656 268.421875 C464.70822525 273.7419425 438.95801807 285.97940494 418 304 C417.06800781 304.78632812 416.13601563 305.57265625 415.17578125 306.3828125 C396.55137973 322.69437984 383.71832154 343.76786328 372.86474609 365.80932617 C367.40289379 376.69947599 358.86413126 388.6417477 347 393 C339.02856241 395.15420701 331.24502886 395.27763524 323.03125 395.23046875 C321.05711121 395.22978142 321.05711121 395.22978142 319.04309082 395.2290802 C316.27297582 395.22752679 313.50299213 395.21932662 310.73291016 395.20581055 C307.20971406 395.18882271 303.68666153 395.18499705 300.16342926 395.18575573 C296.76518417 395.18541601 293.36698462 395.17656289 289.96875 395.16796875 C288.71743286 395.16685593 287.46611572 395.1657431 286.17687988 395.16459656 C267.22332046 395.06283129 267.22332046 395.06283129 263.08203125 391.46484375 C260.58834321 387.78493354 259.1127924 383.74778472 257.6875 379.5625 C257.39609131 378.74483154 257.10468262 377.92716309 256.80444336 377.0847168 C255.17045121 372.4744783 253.60836897 367.8409339 252.0546875 363.203125 C248.16309569 351.64726465 244.05414389 340.60916643 238 330 C237.49629883 329.11441406 237.49629883 329.11441406 236.98242188 328.2109375 C218.55490674 296.46106322 187.50826548 275.34609809 153.24316406 263.76123047 C151.18220387 263.06183192 149.13423601 262.33309095 147.0859375 261.59765625 C106.73733125 247.85573963 58.2731411 250.19482005 20 269 C-16.65482776 287.26692737 -37.03336004 321.60118589 -54.82495117 356.92553711 C-58.35055862 363.91974191 -61.95248192 370.85655704 -65.765625 377.69921875 C-66.12944275 378.35791458 -66.4932605 379.01661041 -66.86810303 379.69526672 C-70.76162907 386.60443592 -74.15664824 390.95616779 -81.4921875 394.046875 C-94.31905317 397.53212581 -107.58382701 394.83616931 -120 391 C-120.26612805 383.5562418 -119.2584673 376.74117298 -117.875 369.4375 C-117.64981689 368.21208496 -117.42463379 366.98666992 -117.19262695 365.72412109 C-115.79119962 358.12653047 -114.34731553 350.53687763 -112.90722656 342.9465332 C-112.41788555 340.3482785 -111.93311601 337.74965981 -111.45605469 335.14916992 C-111.20131296 333.76348317 -110.94642698 332.37782293 -110.69140625 330.9921875 C-110.56124115 330.28397354 -110.43107605 329.57575958 -110.29696655 328.84608459 C-109.39287781 323.977829 -108.41120895 319.12949486 -107.40032959 314.28237915 C-102.305167 289.6280176 -100.17137693 266.23455288 -101.03173828 241.03222656 C-101.06036453 239.96911255 -101.08899078 238.90599854 -101.1184845 237.81066895 C-101.17534775 235.83512396 -101.25471862 233.86002689 -101.36235046 231.88659668 C-101.60024936 223.66168137 -98.81196541 217.08772873 -93.4921875 210.8203125 C-92.62851562 209.93085937 -91.76484375 209.04140625 -90.875 208.125 C-89.90361288 207.1028959 -88.93225967 206.08075957 -87.9609375 205.05859375 C-86.97434739 204.03868601 -85.98737304 203.01914981 -85 202 C-42.68747117 157.90356316 -24.98808554 99.5935332 -12.48242188 41.24694824 C-11.26472258 35.57534125 -10.01691103 29.91082699 -8.75 24.25 C-8.54020508 23.26467285 -8.33041016 22.2793457 -8.11425781 21.26416016 C-4.3167709 4.3167709 -4.3167709 4.3167709 0 0 Z " fill="#F6D6B5" transform="translate(475,500)"/>
<path d="M0 0 C0.79230011 0.0012085 1.58460022 0.00241699 2.40090942 0.00366211 C36.04918103 0.14252436 66.44465107 9.88085707 92.6875 31.375 C93.22745605 31.81489258 93.76741211 32.25478516 94.32373047 32.70800781 C114.14087198 48.91841821 127.60741362 66.90523571 136.9375 90.75 C137.25485107 91.55066895 137.57220215 92.35133789 137.89916992 93.17626953 C143.32114469 107.60541972 145.33384697 121.21845156 145.15405273 136.55810547 C145.12509505 139.24119351 145.13350204 141.92229052 145.14648438 144.60546875 C145.100781 182.3129096 132.43924014 218.50595337 106.6875 246.375 C106.21586426 246.89046387 105.74422852 247.40592773 105.25830078 247.93701172 C87.81537503 266.79758129 65.17167345 279.07575262 40.625 286.125 C39.60043701 286.42325684 39.60043701 286.42325684 38.55517578 286.72753906 C25.82887558 290.19375397 13.03504738 290.75148394 -0.0625 290.6875 C-0.85686462 290.68534485 -1.65122925 290.6831897 -2.46966553 290.68096924 C-13.95786879 290.63093376 -25.165089 290.43409564 -36.3125 287.375 C-37.03421387 287.18164062 -37.75592773 286.98828125 -38.49951172 286.7890625 C-61.13182872 280.50149919 -78.98020699 267.83701767 -96.3125 252.375 C-97.13878906 251.64667969 -97.96507812 250.91835937 -98.81640625 250.16796875 C-110.22787465 239.49140708 -117.95375163 225.48414201 -124.3125 211.375 C-124.85648437 210.18648437 -125.40046875 208.99796875 -125.9609375 207.7734375 C-134.4511245 187.99173276 -137.73452782 166.4758044 -137.625 145.0625 C-137.62350952 144.33788574 -137.62201904 143.61327148 -137.6204834 142.86669922 C-137.58054633 132.0538874 -136.89601928 121.91039032 -134.3125 111.375 C-134.03738187 110.00371322 -133.76803061 108.63125916 -133.50390625 107.2578125 C-128.27206029 81.20645582 -114.58843417 58.33491375 -96.3125 39.375 C-95.65765625 38.65699219 -95.0028125 37.93898438 -94.328125 37.19921875 C-70.56761497 11.86482878 -33.83277002 -0.09546168 0 0 Z " fill="#F6D6B5" transform="translate(566.3125,778.625)"/>
<path d="M0 0 C19.51241198 17.51708464 33.8970799 41.37909724 40.1015625 66.80639648 C40.4728125 68.03100586 40.8440625 69.25561523 41.2265625 70.51733398 C48.74361354 96.80933679 45.81704397 130.50997 36.1015625 155.80639648 C35.84890625 156.46833008 35.59625 157.13026367 35.3359375 157.81225586 C21.68995487 192.76336332 -6.80570955 218.72417935 -40.56860352 233.92236328 C-48.60856557 237.40440909 -56.81671574 240.18236342 -65.2109375 242.68139648 C-66.16419922 242.96772949 -67.11746094 243.2540625 -68.09960938 243.54907227 C-80.98819842 247.22174594 -93.81933242 248.19070285 -107.1484375 248.11889648 C-107.87144043 248.11674133 -108.59444336 248.11458618 -109.33935547 248.11236572 C-145.11110724 247.94156331 -172.08812981 235.36029142 -197.8984375 210.80639648 C-198.69121094 210.08967773 -199.48398437 209.37295898 -200.30078125 208.63452148 C-211.80520916 197.87818467 -218.69912493 184.06101213 -224.8984375 169.80639648 C-225.30835938 168.90405273 -225.71828125 168.00170898 -226.140625 167.07202148 C-229.35747209 159.64085533 -231.23460904 151.71193653 -232.8984375 143.80639648 C-233.08011475 142.98010742 -233.26179199 142.15381836 -233.44897461 141.30249023 C-235.15180698 132.58544742 -235.2369617 123.96475552 -235.21411133 115.11743164 C-235.21095995 112.57451089 -235.23446069 110.03276743 -235.25976562 107.48999023 C-235.3004495 96.89579256 -234.2768763 87.14092096 -231.8984375 76.80639648 C-231.60864014 75.52740479 -231.31884277 74.24841309 -231.02026367 72.93066406 C-225.95118156 51.40503244 -215.42019525 32.36584316 -200.8984375 15.80639648 C-200.20363281 14.97881836 -199.50882813 14.15124023 -198.79296875 13.29858398 C-176.86007166 -12.18991937 -142.29173538 -30.00815057 -108.75537109 -33.00830078 C-67.94327758 -35.65540204 -31.32437155 -27.38579248 0 0 Z " fill="#F6D6B5" transform="translate(1092.8984375,827.193603515625)"/>
<path d="M0 0 C2.08226708 0.91487281 3.63800616 1.9305245 5.40234375 3.36328125 C6.05074219 3.87632813 6.69914063 4.389375 7.3671875 4.91796875 C28.474144 23.79674366 31.55225922 57.99673916 33.40234375 84.36328125 C34.37694224 103.45751766 33.10277177 122.96242521 24.40234375 140.36328125 C11.02147681 140.90697336 -1.23913324 137.84365759 -13.91015625 133.86328125 C-18.80126451 132.34765865 -23.6972099 130.84846772 -28.59765625 129.36328125 C-29.73569702 129.0079834 -29.73569702 129.0079834 -30.89672852 128.64550781 C-36.54178715 127.02789683 -42.09121353 127.06682263 -47.91015625 127.11328125 C-48.89822266 127.10554688 -49.88628906 127.0978125 -50.90429688 127.08984375 C-52.32452148 127.09371094 -52.32452148 127.09371094 -53.7734375 127.09765625 C-55.0560144 127.10104004 -55.0560144 127.10104004 -56.36450195 127.10449219 C-58.88283138 127.22461968 -58.88283138 127.22461968 -61.59765625 129.36328125 C-62.43704894 132.10257715 -62.43704894 132.10257715 -61.59765625 135.36328125 C-57.4599305 141.49516749 -52.39883125 145.15930247 -45.84765625 148.36328125 C-44.61136475 148.98710693 -44.61136475 148.98710693 -43.35009766 149.62353516 C-40.77963309 150.90120582 -38.19447849 152.14014747 -35.59765625 153.36328125 C-34.78586914 153.74581055 -33.97408203 154.12833984 -33.13769531 154.52246094 C-16.94798832 162.01635777 -0.95794552 166.22387643 16.9296875 166.5390625 C17.60866089 166.55110214 18.28763428 166.56314178 18.98718262 166.57554626 C21.81495841 166.62389224 24.6423023 166.67138515 27.47045898 166.68920898 C37.32902943 166.76309427 46.59285467 166.89987403 54.20141602 173.9609375 C57.62557853 176.88353749 60.48264366 177.01624485 64.98828125 177.0703125 C66.04095688 177.09299446 66.04095688 177.09299446 67.11489868 177.11613464 C69.33604578 177.15880556 71.5558287 177.16782833 73.77734375 177.17578125 C75.29170241 177.19894203 76.80602901 177.22431066 78.3203125 177.25195312 C82.01429745 177.3145976 85.70782955 177.34709673 89.40234375 177.36328125 C89.11991821 176.40059326 89.11991821 176.40059326 88.83178711 175.41845703 C86.74840457 168.08636429 85.2797551 160.74173504 83.96484375 153.23828125 C80.25619253 132.71401511 75.03269639 112.85231666 68.90234375 92.92578125 C64.82448703 79.615789 60.92965264 66.35328489 58.58984375 52.61328125 C58.46577148 51.8864917 58.34169922 51.15970215 58.21386719 50.41088867 C57.51563997 45.99341722 57.29161269 41.81583547 57.40234375 37.36328125 C74.84546926 35.99519297 90.20315877 46.98970221 102.93896484 57.64941406 C133.30643115 83.62907561 144.1270075 120.74365037 153.77734375 158.17578125 C154.04023193 159.1714209 154.30312012 160.16706055 154.57397461 161.19287109 C154.8138208 162.14242676 155.05366699 163.09198242 155.30078125 164.0703125 C155.51395996 164.90022705 155.72713867 165.7301416 155.94677734 166.58520508 C156.40234375 169.36328125 156.40234375 169.36328125 156.40234375 177.36328125 C165.31234375 177.36328125 174.22234375 177.36328125 183.40234375 177.36328125 C182.56795025 173.14538383 181.7323886 168.92775348 180.89379883 164.71069336 C180.60892289 163.27626114 180.32473777 161.84169156 180.04125977 160.40698242 C179.63349378 158.34387218 179.22323967 156.28127 178.8125 154.21875 C178.44330444 152.35706177 178.44330444 152.35706177 178.06665039 150.45776367 C177.45852997 147.34840315 177.45852997 147.34840315 176.40234375 144.36328125 C176.27452589 141.68933161 176.35842504 139.04232268 176.40234375 136.36328125 C180.37430538 136.90681284 182.66482758 137.98253718 185.77734375 140.48828125 C186.84082031 141.32746094 186.84082031 141.32746094 187.92578125 142.18359375 C194.40976501 147.89031763 199.61703796 154.03731962 204.65234375 161.05078125 C205.26335938 161.89189453 205.874375 162.73300781 206.50390625 163.59960938 C207.63473252 165.15634728 208.76300216 166.7149484 209.88769531 168.27612305 C210.9079384 169.68199961 211.97997744 171.05153096 213.09667969 172.38208008 C214.40234375 174.36328125 214.40234375 174.36328125 214.40234375 178.36328125 C-52.56765625 178.36328125 -319.53765625 178.36328125 -594.59765625 178.36328125 C-586.53011141 162.22819156 -586.53011141 162.22819156 -582.78515625 156.86328125 C-582.1514209 155.93467285 -582.1514209 155.93467285 -581.50488281 154.98730469 C-580.21366484 153.10455766 -578.90852761 151.2323849 -577.59765625 149.36328125 C-577.2020752 148.79673828 -576.80649414 148.23019531 -576.39892578 147.64648438 C-573.9715398 144.18081209 -571.50688181 140.7436512 -569.01953125 137.32080078 C-568.01709569 135.94073067 -567.01734431 134.55870891 -566.01953125 133.17529297 C-557.62212142 121.54301645 -548.85448995 110.3228399 -539.59765625 99.36328125 C-538.83727051 98.46222656 -538.83727051 98.46222656 -538.06152344 97.54296875 C-536.1863216 95.32308814 -534.3103135 93.10399585 -532.42456055 90.89306641 C-529.62102267 87.6016643 -526.9108151 84.24909294 -524.22265625 80.86328125 C-506.72404817 59.51435332 -506.72404817 59.51435332 -496.59765625 57.36328125 C-479.59299333 55.74560401 -479.59299333 55.74560401 -472.72265625 58.52734375 C-448.4882325 79.46517309 -441.38575741 125.6880365 -436.72265625 155.23828125 C-436.54234863 156.34937256 -436.54234863 156.34937256 -436.35839844 157.48291016 C-435.38050636 164.25700772 -435.59765625 170.31423422 -435.59765625 177.36328125 C-426.68765625 177.36328125 -417.77765625 177.36328125 -408.59765625 177.36328125 C-417.63875843 108.55768907 -417.63875843 108.55768907 -448.33203125 47.38671875 C-453.82413965 40.05759478 -458.85409756 32.67877355 -458.97265625 23.30078125 C-459.00101563 22.27855469 -459.029375 21.25632812 -459.05859375 20.203125 C-458.4739065 16.60085696 -457.45095702 15.58305253 -454.59765625 13.36328125 C-452.08203125 11.94921875 -452.08203125 11.94921875 -449.34765625 10.73828125 C-448.00960937 10.13113281 -448.00960937 10.13113281 -446.64453125 9.51171875 C-439.02871664 6.64114247 -432.36326408 6.04954864 -424.28515625 6.11328125 C-423.31642578 6.10554688 -422.34769531 6.0978125 -421.34960938 6.08984375 C-411.74038813 6.11548543 -402.64795133 7.55054248 -393.66015625 10.98828125 C-392.98339844 11.24625488 -392.30664062 11.50422852 -391.609375 11.77001953 C-370.49327736 20.21147838 -358.26651332 37.88402924 -349.40625 57.9921875 C-341.45174409 76.82781743 -336.8450269 96.91499845 -334.04833984 117.12060547 C-333.70192508 119.61306534 -333.34742579 122.1038249 -332.98681641 124.59423828 C-332.39671963 128.67833756 -331.8236651 132.76459754 -331.25927734 136.85232544 C-331.0310342 138.49390038 -330.79893528 140.13494504 -330.5625 141.77536011 C-330.22406629 144.13640323 -329.9033732 146.49933318 -329.5859375 148.86328125 C-329.48610062 149.53613663 -329.38626373 150.208992 -329.28340149 150.90223694 C-328.14831594 159.66166832 -328.51754002 168.54958071 -328.59765625 177.36328125 C-315.55736441 177.46468657 -302.51809507 177.51144464 -289.47739315 177.49025154 C-283.42057501 177.48208665 -277.36496709 177.49207718 -271.30834961 177.54492188 C-265.45279183 177.59532166 -259.59904601 177.5962508 -253.74337959 177.56423569 C-251.5200768 177.56051172 -249.29667011 177.57400532 -247.07359123 177.60577774 C-232.23919301 177.80326966 -222.96648227 176.14586434 -211.59765625 166.36328125 C-210.23345172 165.32118931 -208.86639496 164.28277138 -207.4921875 163.25390625 C-206.45488523 162.38545597 -205.42707973 161.50550798 -204.41015625 160.61328125 C-203.55973755 159.87331909 -203.55973755 159.87331909 -202.69213867 159.1184082 C-193.26413982 150.69750001 -185.75324661 140.72586522 -178.40307617 130.50366211 C-174.17548087 124.668357 -169.45574143 118.17685466 -162.59765625 115.36328125 C-157.67104199 115.25618094 -154.79435738 117.21619693 -151.32421875 120.45703125 C-137.42094215 135.80725519 -136.27931483 157.78528374 -136.59765625 177.36328125 C-129.33765625 177.36328125 -122.07765625 177.36328125 -114.59765625 177.36328125 C-114.26765625 174.06328125 -113.93765625 170.76328125 -113.59765625 167.36328125 C-108.95787136 146.29507345 -98.82215034 130.07897384 -84.16015625 114.55078125 C-65.21549709 94.39045835 -54.10360486 69.43897318 -46.59765625 43.11328125 C-42.67785648 29.48820159 -37.41104089 16.82048635 -27.59765625 6.36328125 C-27.04207031 5.65171875 -26.48648438 4.94015625 -25.9140625 4.20703125 C-19.432395 -3.06860443 -8.83886571 -2.16651896 0 0 Z " fill="#80AAC7" transform="translate(847.59765625,1345.63671875)"/>
<path d="M0 0 C0.96873047 -0.00773437 1.93746094 -0.01546875 2.93554688 -0.0234375 C12.54476812 0.00220418 21.63720492 1.43726123 30.625 4.875 C31.64013672 5.26196045 31.64013672 5.26196045 32.67578125 5.65673828 C53.79187889 14.09819713 66.01864293 31.77074799 74.87890625 51.87890625 C82.83341216 70.71453618 87.44012935 90.8017172 90.23681641 111.00732422 C90.58323117 113.49978409 90.93773046 115.99054365 91.29833984 118.48095703 C91.88843662 122.56505631 92.46149115 126.65131629 93.02587891 130.73904419 C93.25412205 132.38061913 93.48622097 134.02166379 93.72265625 135.66207886 C94.06108996 138.02312198 94.38178305 140.38605193 94.69921875 142.75 C94.79905563 143.42285538 94.89889252 144.09571075 95.00175476 144.78895569 C96.15279416 153.67150263 95.6875 162.11896756 95.6875 171.25 C129.0175 171.25 162.3475 171.25 196.6875 171.25 C196.6875 171.58 196.6875 171.91 196.6875 172.25 C75.5775 172.25 -45.5325 172.25 -170.3125 172.25 C-162.24495516 156.11491031 -162.24495516 156.11491031 -158.5 150.75 C-157.86626465 149.8213916 -157.86626465 149.8213916 -157.21972656 148.87402344 C-155.92850859 146.99127641 -154.62337136 145.11910365 -153.3125 143.25 C-152.91691895 142.68345703 -152.52133789 142.11691406 -152.11376953 141.53320312 C-149.68638355 138.06753084 -147.22172556 134.63036995 -144.734375 131.20751953 C-143.73193944 129.82744942 -142.73218806 128.44542766 -141.734375 127.06201172 C-133.33696517 115.4297352 -124.5693337 104.20955865 -115.3125 93.25 C-114.55211426 92.34894531 -114.55211426 92.34894531 -113.77636719 91.4296875 C-111.90116535 89.20980689 -110.02515725 86.9907146 -108.1394043 84.77978516 C-105.33586642 81.48838305 -102.62565885 78.13581169 -99.9375 74.75 C-82.43889192 53.40107207 -82.43889192 53.40107207 -72.3125 51.25 C-55.30783708 49.63232276 -55.30783708 49.63232276 -48.4375 52.4140625 C-24.20307625 73.35189184 -17.10060116 119.57475525 -12.4375 149.125 C-12.25719238 150.23609131 -12.25719238 150.23609131 -12.07324219 151.36962891 C-11.09535011 158.14372647 -11.3125 164.20095297 -11.3125 171.25 C-2.4025 171.25 6.5075 171.25 15.6875 171.25 C6.64639782 102.44440782 6.64639782 102.44440782 -24.046875 41.2734375 C-29.5389834 33.94431353 -34.56894131 26.5654923 -34.6875 17.1875 C-34.71585938 16.16527344 -34.74421875 15.14304687 -34.7734375 14.08984375 C-34.18875025 10.48757571 -33.16580077 9.46977128 -30.3125 7.25 C-27.796875 5.8359375 -27.796875 5.8359375 -25.0625 4.625 C-23.72445312 4.01785156 -23.72445312 4.01785156 -22.359375 3.3984375 C-14.74356039 0.52786122 -8.07810783 -0.06373261 0 0 Z " fill="#4B6E85" transform="translate(423.3125,1351.75)"/>
<path d="M0 0 C1.00643555 0.00572021 2.01287109 0.01144043 3.04980469 0.01733398 C20.3919125 0.42780625 34.48777005 7.03110566 46.51953125 19.63671875 C66.39784619 43.17598345 68.86220448 71.51168061 66.73828125 101.29345703 C64.59607316 123.41351143 54.31425458 148.38967311 37.125 162.875 C22.18390912 174.04590907 7.09471258 175.98751785 -11.0625 174.5 C-24.73802685 172.26839009 -38.06049205 161.35661421 -46.0625 150.5 C-58.92499011 130.63433923 -65.45467262 109.17500301 -65.3125 85.5625 C-65.32023437 84.28181641 -65.32796875 83.00113281 -65.3359375 81.68164062 C-65.319773 73.74891348 -64.63770278 66.271048 -63.0625 58.5 C-62.87123535 57.50097656 -62.6799707 56.50195312 -62.48291016 55.47265625 C-58.99735926 38.07298588 -48.24657515 22.01466993 -34.0625 11.5 C-22.96186155 4.35742892 -13.38314367 -0.08884608 0 0 Z " fill="#433224" transform="translate(574.0625,840.5)"/>
<path d="M0 0 C18.11467206 15.09556005 28.87372964 41.29254014 31.671875 64.2890625 C33.66067054 92.4472568 25.13534372 123.1649136 6.921875 144.9765625 C-2.17103892 154.80959732 -14.50945656 163.01225011 -28.18359375 163.625 C-38.20093204 163.79503876 -47.11412063 163.67602876 -56.328125 159.2890625 C-57.23304688 158.88816406 -58.13796875 158.48726562 -59.0703125 158.07421875 C-75.98020485 149.81088609 -89.44534933 133.4083492 -95.80004883 115.93823242 C-105.94724636 86.27988759 -104.13096217 54.2864696 -90.41162109 26.01806641 C-87.63511774 20.57020078 -84.41189058 15.85061964 -80.328125 11.2890625 C-79.71324219 10.53367187 -79.09835937 9.77828125 -78.46484375 9 C-59.20221987 -14.0842667 -24.37286636 -17.91160313 0 0 Z " fill="#433224" transform="translate(1011.328125,858.7109375)"/>
<path d="M0 0 C1.37887817 3.36859487 1.86320568 6.85697707 2.4375 10.4375 C6.37929768 31.26552369 13.85178046 50.92000433 28 67 C28.6290625 67.77214844 29.258125 68.54429688 29.90625 69.33984375 C41.24142437 82.7894641 56.367513 92.93374572 70.51367188 103.19287109 C74.89848085 106.37986599 79.2607969 109.59738009 83.625 112.8125 C84.44919434 113.41771484 85.27338867 114.02292969 86.12255859 114.64648438 C87.25685303 115.48083008 87.25685303 115.48083008 88.4140625 116.33203125 C89.0838916 116.82421143 89.7537207 117.3163916 90.44384766 117.82348633 C92 119 92 119 93 120 C92.79770957 130.7213929 86.97190305 139.93180499 79.72265625 147.5078125 C74.21155848 152.55240414 68.16700048 156.80063544 62 161 C61.29713867 161.48178711 60.59427734 161.96357422 59.87011719 162.45996094 C43.10783467 173.86983664 24.090862 184.37808241 3 182 C-5.40362746 178.94413547 -9.647118 168.20383429 -13.25 160.6875 C-14.20907006 158.724347 -15.17004265 156.76212244 -16.1328125 154.80078125 C-16.61137695 153.82447754 -17.08994141 152.84817383 -17.58300781 151.84228516 C-19.67804127 147.63994548 -21.9029236 143.51105159 -24.125 139.375 C-41.29469049 107.01531031 -60.26738115 64.80804462 -53.31640625 27.3125 C-52.40178702 24.39786279 -51.33697158 21.74474851 -50 19 C-49.57589844 18.09894531 -49.15179687 17.19789062 -48.71484375 16.26953125 C-45.32374324 9.87461469 -41.30022563 6.43544912 -35 3 C-34.01 2.4225 -33.02 1.845 -32 1.25 C-23.06250114 -2.47395786 -8.61264218 -5.17005312 0 0 Z " fill="#80ABC8" transform="translate(568,1324)"/>
<path d="M0 0 C3.41783152 0.7756337 6.80988188 1.64495101 10.19851685 2.53875732 C13.84378673 3.49802522 17.50160122 4.40687162 21.15917969 5.31787109 C21.86886398 5.49545959 22.57854828 5.6730481 23.30973816 5.85601807 C31.23243952 7.82127987 39.13883097 9.16833435 47.21777344 10.29052734 C48.42119385 10.45883057 49.62461426 10.62713379 50.86450195 10.80053711 C60.93191229 12.13280447 70.95248783 12.86383513 81.09277344 13.35302734 C82.74447393 13.43751078 84.3961665 13.52214914 86.04785156 13.60693359 C94.28209128 14.01903351 102.51502282 14.35344442 110.75683594 14.56787109 C111.51809784 14.58793716 112.27935974 14.60800323 113.06369019 14.62867737 C116.65122625 14.72057078 120.23845824 14.8005868 123.82666016 14.86108398 C141.50440454 15.24729638 141.50440454 15.24729638 149.21777344 17.29052734 C151.46777344 20.41552734 151.46777344 20.41552734 152.21777344 24.29052734 C152.55808594 25.44681641 152.89839844 26.60310547 153.24902344 27.79443359 C154.60975811 33.19992086 154.50948559 38.55878757 154.46777344 44.10302734 C154.47550781 45.11945313 154.48324219 46.13587891 154.49121094 47.18310547 C154.44561391 65.06853901 149.20566316 80.32533987 136.32714844 93.17724609 C135.75480469 93.70962891 135.18246094 94.24201172 134.59277344 94.79052734 C131.61868891 97.58766405 129.85747236 100.5217207 127.90527344 104.10302734 C124.40027105 110.34902035 120.22857539 116.24754746 114.21777344 120.29052734 C102.9126165 121.77019197 91.45404565 112.55347199 82.76074219 106.05615234 C63.09903049 90.93429851 63.09903049 90.93429851 61.21777344 85.29052734 C58.74459859 84.08958393 58.74459859 84.08958393 55.65527344 83.10302734 C27.60977844 72.83500458 -6.81308554 53.19337015 -20.84472656 25.72802734 C-23.55653992 19.85082329 -24.67463783 14.76296071 -23.78222656 8.29052734 C-18.8554903 -2.13360962 -10.31968955 -1.93577445 0 0 Z " fill="#ECB38D" transform="translate(621.7822265625,1334.70947265625)"/>
<path d="M0 0 C24.2257071 20.93029842 31.31349869 67.11190762 36 96.6484375 C36.18030762 97.74696045 36.18030762 97.74696045 36.36425781 98.86767578 C37.39807036 105.99714159 37.125 112.41285476 37.125 119.8359375 C-15.345 119.8359375 -67.815 119.8359375 -121.875 119.8359375 C-113.80745516 103.70084781 -113.80745516 103.70084781 -110.0625 98.3359375 C-109.64000977 97.71686523 -109.21751953 97.09779297 -108.78222656 96.45996094 C-107.49100859 94.57721391 -106.18587136 92.70504115 -104.875 90.8359375 C-104.28162842 89.98612305 -104.28162842 89.98612305 -103.67626953 89.11914062 C-101.24888355 85.65346834 -98.78422556 82.21630745 -96.296875 78.79345703 C-95.29443944 77.41338692 -94.29468806 76.03136516 -93.296875 74.64794922 C-84.89946517 63.0156727 -76.1318337 51.79549615 -66.875 40.8359375 C-66.36807617 40.23523437 -65.86115234 39.63453125 -65.33886719 39.015625 C-63.46366535 36.79574439 -61.58765725 34.5766521 -59.7019043 32.36572266 C-56.89836642 29.07432055 -54.18815885 25.72174919 -51.5 22.3359375 C-38.52791049 6.50952418 -22.28045039 -9.02116062 0 0 Z " fill="#80ABC8" transform="translate(374.875,1404.1640625)"/>
<path d="M0 0 C17.44312551 -1.36808828 32.80081502 9.62642096 45.53662109 20.28613281 C75.9040874 46.26579436 86.72466375 83.38036912 96.375 120.8125 C96.63788818 121.80813965 96.90077637 122.8037793 97.17163086 123.82958984 C97.41147705 124.77914551 97.65132324 125.72870117 97.8984375 126.70703125 C98.21820557 127.95190308 98.21820557 127.95190308 98.54443359 129.22192383 C99 132 99 132 99 140 C107.91 140 116.82 140 126 140 C125.1656065 135.78210258 124.33004485 131.56447223 123.49145508 127.34741211 C123.20657914 125.91297989 122.92239402 124.47841031 122.63891602 123.04370117 C122.23115003 120.98059093 121.82089592 118.91798875 121.41015625 116.85546875 C121.16402588 115.61434326 120.91789551 114.37321777 120.66430664 113.09448242 C120.05618622 109.9851219 120.05618622 109.9851219 119 107 C118.87218214 104.32605036 118.95608129 101.67904143 119 99 C122.97196163 99.54353159 125.26248383 100.61925593 128.375 103.125 C129.08398438 103.68445312 129.79296875 104.24390625 130.5234375 104.8203125 C137.00742126 110.52703638 142.21469421 116.67403837 147.25 123.6875 C148.16652344 124.94916992 148.16652344 124.94916992 149.1015625 126.23632812 C150.23238877 127.79306603 151.36065841 129.35166715 152.48535156 130.9128418 C153.50559465 132.31871836 154.57763369 133.68824971 155.69433594 135.01879883 C157 137 157 137 157 141 C105.52 141 54.04 141 1 141 C1 140.67 1 140.34 1 140 C11.23 140 21.46 140 32 140 C31.01 136.37 30.02 132.74 29 129 C28.54861144 126.87974634 28.12622957 124.75274424 27.75390625 122.6171875 C27.55861328 121.52140381 27.36332031 120.42562012 27.16210938 119.29663086 C26.96423828 118.16749268 26.76636719 117.03835449 26.5625 115.875 C22.85384878 95.35073386 17.63035264 75.48903541 11.5 55.5625 C7.42214328 42.25250775 3.52730889 28.99000364 1.1875 15.25 C1.06342773 14.52321045 0.93935547 13.7964209 0.81152344 13.04760742 C0.11329622 8.63013597 -0.11073106 4.45255422 0 0 Z " fill="#4B6E85" transform="translate(905,1383)"/>
<path d="M0 0 C21.06390854 14.41053423 37.06262989 39.68628218 43.04858398 64.32006836 C43.58074644 67.55304884 43.61209126 70.61778387 43.59765625 73.89453125 C43.59282227 75.83295898 43.59282227 75.83295898 43.58789062 77.81054688 C43.57953665 79.16536526 43.57107172 80.52018297 43.5625 81.875 C43.55748 83.24934735 43.55291797 84.62369645 43.54882812 85.99804688 C43.53705668 89.35290924 43.52061283 92.70768221 43.5 96.0625 C42.55543945 96.36575195 41.61087891 96.66900391 40.63769531 96.98144531 C37.72880049 97.98366958 35.73686476 99.04701586 33.25 100.8125 C30.00541835 103.0465638 26.73938051 105.19967084 23.375 107.25 C22.60929687 107.71792969 21.84359375 108.18585938 21.0546875 108.66796875 C11.4412686 113.91566072 1.84858993 114.97838237 -8.78125 112.20703125 C-22.92912022 106.02684601 -33.8926481 92.09906518 -39.6953125 78.19921875 C-44.91680281 63.28896309 -45.6426507 46.55950815 -46.76611328 30.91455078 C-47.43933256 21.15566333 -47.43933256 21.15566333 -50.55444336 11.98217773 C-51.84728492 9.35743898 -51.69415711 7.21709845 -51.625 4.3125 C-51.59792969 2.83523438 -51.59792969 2.83523438 -51.5703125 1.328125 C-51.54710937 0.58046875 -51.52390625 -0.1671875 -51.5 -0.9375 C-50.448125 -1.185 -49.39625 -1.4325 -48.3125 -1.6875 C-45.65145943 -2.33516067 -43.0905765 -3.07699149 -40.49609375 -3.9609375 C-26.03171337 -8.86942759 -13.34084059 -7.78377056 0 0 Z " fill="#ECB38D" transform="translate(254.5,941.9375)"/>
<path d="M0 0 C9.05615353 -0.30463791 14.25531204 0.73413376 21.12890625 6.9140625 C36.24381308 22.6886332 37.41523964 43.5328301 37.21875 64.18359375 C36.13197933 111.83169553 16.67455458 152.39306002 -16.4921875 185.7578125 C-19.86890179 188.77686858 -22.37856515 191 -27 191 C-27.3542532 168.49311313 -26.96484098 146.3221965 -24.68998718 123.92251587 C-24.10377736 118.14905309 -23.58497492 112.37144472 -23.0859375 106.58984375 C-21.6102501 89.63060282 -19.99516053 72.68927486 -17.86688232 55.79800415 C-17.6686406 54.2199213 -17.47461759 52.64130092 -17.28546143 51.06210327 C-15.46762033 36.03291284 -12.24398889 21.70333606 -4.6875 8.4375 C-4.23310547 7.60798828 -3.77871094 6.77847656 -3.31054688 5.92382812 C-2.22146545 3.94055353 -1.1186581 1.96668887 0 0 Z " fill="#F4D4B4" transform="translate(1178,897)"/>
<path d="M0 0 C1.65 0 3.3 0 5 0 C5 2.31 5 4.62 5 7 C6.32 7 7.64 7 9 7 C8.67 8.98 8.34 10.96 8 13 C8.69867188 13.08378906 9.39734375 13.16757812 10.1171875 13.25390625 C19.22856683 15.61200036 27.52131914 24.21680277 34.2109375 30.47265625 C39.20541912 34.99846803 44.5829828 39.00232073 50 43 C50.61020996 43.45600586 51.22041992 43.91201172 51.84912109 44.38183594 C85.04779574 69.07954794 122.24318836 85.75712284 163 93 C163.68481445 93.12842285 164.36962891 93.2568457 165.07519531 93.38916016 C184.93006873 97.034829 205.50362097 94.79072905 225.4375 93 C252.1632342 90.62667994 252.1632342 90.62667994 265 91 C265.43103678 104.14662166 264.41243124 118.91525224 255 129 C254.36199463 128.67185303 253.72398926 128.34370605 253.06665039 128.00561523 C248.94073626 126.6526465 245.2430889 126.80867653 240.93359375 126.91015625 C239.08505141 126.93343245 237.2364993 126.95594207 235.38793945 126.9777832 C234.41780914 126.99233551 233.44767883 127.00688782 232.44815063 127.0218811 C188.70065756 127.61211063 144.46525907 124.07690649 104 106 C103.28602051 105.68869141 102.57204102 105.37738281 101.83642578 105.05664062 C80.96026307 95.89646568 58.87461164 84.92377292 48.58203125 63.6875 C46.2486298 59.72359827 44.31270326 59.277838 40 58 C38.28255246 56.38571084 36.62089426 54.71121517 35 53 C34.19820312 52.20980469 33.39640625 51.41960938 32.5703125 50.60546875 C28.21265311 46.29653718 24.02595193 41.94856373 20.06640625 37.2734375 C18.33411619 35.36759097 16.56462014 33.57802859 14.71484375 31.7890625 C13.83082886 30.93018433 13.83082886 30.93018433 12.92895508 30.05395508 C11.74600202 28.91198673 10.55465219 27.77863935 9.35424805 26.6550293 C6.23934537 23.64281069 4.11218337 21.57547873 4 17 C4.33 16.34 4.66 15.68 5 15 C4.01 14.67 3.02 14.34 2 14 C2 12.68 2 11.36 2 10 C0.68 10 -0.64 10 -2 10 C-1.34 6.7 -0.68 3.4 0 0 Z " fill="#ECB38D" transform="translate(491,527)"/>
<path d="M0 0 C2.21738967 2.19789613 4.13904383 4.49692477 6 7 C6.9590625 8.175625 6.9590625 8.175625 7.9375 9.375 C9.5688182 13.40531556 9.32533213 16.88173632 8 21 C2.56575854 27.24937767 -5.05358634 28.84010986 -13 30 C-15.05284015 30.09028673 -17.10802846 30.13502715 -19.1628418 30.1418457 C-20.36236984 30.14888016 -21.56189789 30.15591461 -22.79777527 30.16316223 C-24.08525162 30.16732651 -25.37272797 30.17149078 -26.69921875 30.17578125 C-28.05760963 30.18623263 -29.41599331 30.19765965 -30.77436829 30.21000671 C-36.5094553 30.26198479 -42.24441975 30.31021723 -47.97973633 30.32592773 C-71.75845708 30.38671395 -71.75845708 30.38671395 -95 35 C-95.77918793 35.2310141 -96.55837585 35.4620282 -97.36117554 35.70004272 C-103.03072105 37.41325572 -108.64305726 39.28095642 -114.25 41.1875 C-116.68805851 42.01076255 -119.12707369 42.83077921 -121.56854248 43.64387512 C-123.06547594 44.14289557 -124.56048585 44.64774242 -126.05303955 45.15971375 C-135.79964605 48.42234162 -147.66934205 50.31123807 -157.3125 46 C-158.55460545 45.35776235 -159.7897869 44.7004851 -161 44 C-161.7159684 34.6526348 -159.92081061 27.19286059 -153.875 19.875 C-141.19599391 6.55401892 -125.30104672 -0.69445425 -108 -6 C-106.76121094 -6.38027344 -105.52242187 -6.76054688 -104.24609375 -7.15234375 C-73.9131927 -15.53421943 -26.02643631 -21.60982893 0 0 Z " fill="#453325" transform="translate(633,678)"/>
<path d="M0 0 C1.26263672 0.00902344 2.52527344 0.01804687 3.82617188 0.02734375 C32.05853284 0.54457784 60.56079191 10.61175276 81.875 29.4375 C83.18791016 30.57058594 83.18791016 30.57058594 84.52734375 31.7265625 C97.52991299 43.14438395 97.52991299 43.14438395 98.1484375 49.046875 C98.45641889 58.57060713 98.45641889 58.57060713 95.5625 62.125 C91.78889976 65.37205137 88.64596635 65.85183295 83.71142578 65.79003906 C77.49418042 65.01729829 71.65165773 62.49656196 65.8125 60.3125 C64.41460936 59.80202756 63.01624994 59.29283703 61.61743164 58.78491211 C54.65998183 56.24972675 47.7318445 53.63721786 40.8125 51 C26.58213314 45.60923875 12.63259618 42.17521692 -2.6015625 42.09375 C-3.65225922 42.0791272 -4.70295593 42.06450439 -5.78549194 42.04943848 C-10.22862248 41.98785045 -14.67188164 41.94766798 -19.11523438 41.90576172 C-22.38165138 41.87183609 -25.64779002 41.82679045 -28.9140625 41.78125 C-29.90491852 41.7759729 -30.89577454 41.7706958 -31.91665649 41.76525879 C-40.59387828 41.64206349 -48.14118194 40.99280982 -55.125 35.4375 C-56.094375 34.674375 -57.06375 33.91125 -58.0625 33.125 C-60.125 30.4375 -60.125 30.4375 -60.375 27.125 C-56.98576977 17.12677081 -48.06748649 12.15568617 -39.125 7.4375 C-26.78651416 1.76007085 -13.47260984 -0.11696243 0 0 Z " fill="#453425" transform="translate(999.125,669.5625)"/>
<path d="M0 0 C9.96408922 3.54915567 18.70513952 8.72794936 27.42431641 14.65478516 C59.23594135 36.26563044 94.9630931 43.09712347 133.05444336 35.82788086 C148.7551675 32.51716299 162.49192032 26.01671264 176.85546875 18.9921875 C182.28752595 16.33666553 187.74236938 13.74504245 193.25 11.25 C193.96986084 10.91500488 194.68972168 10.58000977 195.43139648 10.23486328 C199.08566891 8.59593467 201.97619457 7.59450023 206 8 C204.35686372 21.2653197 196.20404034 31.01094454 187 40 C186.03126953 40.99966797 186.03126953 40.99966797 185.04296875 42.01953125 C172.78968011 53.84569 154.25510608 59.73387532 138 63 C137.369729 63.16991455 136.73945801 63.3398291 136.09008789 63.51489258 C127.69294632 65.58351296 119.14492196 65.33644522 110.55249023 65.31567383 C107.83601206 65.31252723 105.12064002 65.33598314 102.40429688 65.36132812 C91.85710009 65.39947568 82.24634015 64.55280333 72 62 C70.69964589 61.69505501 69.39893886 61.39161144 68.09790039 61.08959961 C45.37970393 55.69440055 20.29470673 43.41166804 7.6875 23 C6.76749787 21.34655172 5.870532 19.68002059 5 18 C4.5978125 17.23558594 4.195625 16.47117187 3.78125 15.68359375 C1.22167082 10.42731507 0.37001063 5.82766741 0 0 Z " fill="#453426" transform="translate(656,1134)"/>
<path d="M0 0 C1.26650391 0.00966797 1.26650391 0.00966797 2.55859375 0.01953125 C3.43128906 0.03628906 4.30398438 0.05304688 5.203125 0.0703125 C6.09128906 0.07933594 6.97945313 0.08835937 7.89453125 0.09765625 C10.08100558 0.12116673 12.26692594 0.15402751 14.453125 0.1953125 C14.61646466 8.20856404 13.26369927 13.14172555 8.23828125 19.4140625 C-3.624569 34.39758772 -14.30923946 50.06586949 -24.546875 66.1953125 C-25.4119165 67.55390381 -25.4119165 67.55390381 -26.29443359 68.93994141 C-34.22534112 81.43595668 -41.51851438 94.16941749 -48.546875 107.1953125 C-35.181875 107.6903125 -35.181875 107.6903125 -21.546875 108.1953125 C-21.546875 108.5253125 -21.546875 108.8553125 -21.546875 109.1953125 C-52.236875 109.1953125 -82.926875 109.1953125 -114.546875 109.1953125 C-114.546875 108.8653125 -114.546875 108.5353125 -114.546875 108.1953125 C-105.306875 108.1953125 -96.066875 108.1953125 -86.546875 108.1953125 C-85.886875 106.2153125 -85.226875 104.2353125 -84.546875 102.1953125 C-83.57641602 100.20751953 -83.57641602 100.20751953 -82.55078125 98.453125 C-82.16293457 97.78788818 -81.77508789 97.12265137 -81.37548828 96.43725586 C-80.74876221 95.3893689 -80.74876221 95.3893689 -80.109375 94.3203125 C-79.66835449 93.5785376 -79.22733398 92.8367627 -78.77294922 92.07250977 C-70.59232519 78.48183938 -61.15590572 65.79687848 -51.546875 53.1953125 C-50.45962028 51.76433442 -49.37238092 50.33334466 -48.28515625 48.90234375 C-10.95448717 -0.14803361 -10.95448717 -0.14803361 0 0 Z " fill="#4B6E84" transform="translate(274.546875,1414.8046875)"/>
<path d="M0 0 C20.91411595 14.30805603 37.40868294 39.80128265 43.03759766 64.41308594 C43.85641944 69.10466671 43.80974118 73.81047117 43.875 78.5625 C43.91238281 79.59503906 43.94976562 80.62757813 43.98828125 81.69140625 C44.07476413 89.13854326 44.07476413 89.13854326 42.36035156 91.89453125 C40.9765625 93.28125 40.9765625 93.28125 38.5 95.0625 C30.20267794 91.58158933 25.81622558 81.50721954 21.6875 74 C20.64399857 72.14726926 19.59840042 70.295718 18.55078125 68.4453125 C18.03725098 67.5368457 17.5237207 66.62837891 16.99462891 65.69238281 C1.30571033 38.08685669 -16.91890115 28.29678014 -46.5 18.0625 C-46.51356035 15.98569523 -46.52322525 13.90886479 -46.53125 11.83203125 C-46.53705078 10.67550049 -46.54285156 9.51896973 -46.54882812 8.32739258 C-46.49594206 4.79116611 -46.14544216 1.53175162 -45.5 -1.9375 C-43.75093469 -2.58586042 -42.00070781 -3.23108784 -40.25 -3.875 C-39.27546875 -4.23464844 -38.3009375 -4.59429688 -37.296875 -4.96484375 C-24.49200078 -9.41793548 -11.54897812 -6.73830073 0 0 Z " fill="#463526" transform="translate(254.5,941.9375)"/>
<path d="M0 0 C1.9296875 0.0234375 1.9296875 0.0234375 4 1 C5.6328125 3.4765625 5.6328125 3.4765625 7.125 6.625 C7.62257813 7.64851562 8.12015625 8.67203125 8.6328125 9.7265625 C11.80557244 17.32305631 12.35445267 23.92003419 12.3125 32.0625 C12.30512817 33.74085938 12.30512817 33.74085938 12.29760742 35.453125 C12.18036816 43.73562776 11.34155322 51.0291617 9 59 C8.69449219 60.19882812 8.38898438 61.39765625 8.07421875 62.6328125 C3.38557273 80.45901795 -4.09507517 97.65905495 -11.5 114.5 C-11.81364502 115.21663818 -12.12729004 115.93327637 -12.45043945 116.67163086 C-13.97818944 120.06574938 -15.46719051 123.24205189 -18 126 C-18.66 126 -19.32 126 -20 126 C-19.43576751 119.64129002 -18.30102851 113.81936261 -16.5625 107.6875 C-14.59249709 100.50597598 -12.98857031 93.39214516 -12 86 C-21.0902843 88.16344971 -28.71914585 91.899904 -35 99 C-34.48563419 92.6990188 -32.34241403 87.66346303 -29.75 81.9375 C-23.75186956 68.57802766 -19.31734677 55.15318635 -15.9375 40.9375 C-8.05366635 8.05366635 -8.05366635 8.05366635 0 0 Z " fill="#6F4F34" transform="translate(1211,551)"/>
<path d="M0 0 C9.09420862 5.42038925 14.32256761 14.03801447 17.5 24 C18.77615696 33.85915954 17.65919425 43.85014577 11.96484375 52.15234375 C6.81665807 58.64592196 0.67648695 62.42620716 -7.5 64 C-14.16253901 64.44293153 -20.83274888 64.23508427 -27.5 64 C-27.94219037 57.49762684 -26.83744708 53.69516061 -23.6875 48.0625 C-22.94766553 46.66364923 -22.21194062 45.26261676 -21.48046875 43.859375 C-21.13290527 43.19486328 -20.7853418 42.53035156 -20.42724609 41.84570312 C-17.98203013 36.9784486 -15.64633956 31.50523876 -16.5 26 C-18.71877674 24.13852033 -18.71877674 24.13852033 -21.625 22.6875 C-27.98398356 18.91313557 -32.37728349 15.08989586 -34.375 7.8125 C-33.1790923 3.96851097 -31.15132252 3.0063969 -27.73828125 1.078125 C-19.10564404 -3.08000392 -8.93468147 -4.07619109 0 0 Z " fill="#9B6D47" transform="translate(825.5,1014)"/>
<path d="M0 0 C9.19392875 1.30179522 16.66861219 5.07279463 22.6640625 12.29296875 C30.86004312 23.33811644 36.64656821 36.01592465 40.01953125 49.3125 C40.24382812 50.10269531 40.468125 50.89289063 40.69921875 51.70703125 C42.77651938 60.05891804 42.18699675 68.77175974 42.01953125 77.3125 C41.73078125 76.71824219 41.44203125 76.12398438 41.14453125 75.51171875 C38.48491115 70.06324518 38.48491115 70.06324518 34.01953125 66.3125 C34.01953125 75.2225 34.01953125 84.1325 34.01953125 93.3125 C29.06953125 93.8075 29.06953125 93.8075 24.01953125 94.3125 C23.68953125 100.2525 23.35953125 106.1925 23.01953125 112.3125 C22.35953125 112.3125 21.69953125 112.3125 21.01953125 112.3125 C20.99971191 111.59932617 20.97989258 110.88615234 20.95947266 110.15136719 C20.07919725 79.85238514 18.10883366 55.41039554 1.70703125 29.3125 C-3.4076667 21.13300269 -6.54787639 14.20868158 -4.98046875 4.3125 C-2.8905045 0.45609539 -2.8905045 0.45609539 0 0 Z " fill="#6F4F34" transform="translate(984.98046875,385.6875)"/>
<path d="M0 0 C1.41152344 0.41572266 1.41152344 0.41572266 2.8515625 0.83984375 C4.09679687 1.20207031 5.34203125 1.56429688 6.625 1.9375 C7.85476563 2.29714844 9.08453125 2.65679688 10.3515625 3.02734375 C17.50563938 4.93458694 24.16016332 5.13341724 31.5234375 5.09765625 C32.62475006 5.0962413 33.72606262 5.09482635 34.86074829 5.09336853 C38.36552692 5.08778752 41.8702408 5.07523846 45.375 5.0625 C47.75650949 5.05748255 50.13801999 5.05292007 52.51953125 5.04882812 C58.34637612 5.03782431 64.17318343 5.02110507 70 5 C69.86624548 6.73351156 69.72555664 8.4664888 69.58203125 10.19921875 C69.5044458 11.16432373 69.42686035 12.12942871 69.34692383 13.1237793 C68.07019864 23.70864868 62.54746617 30.58749641 55.51171875 38.2421875 C52.09410878 40.63398297 50.10403006 40.49638377 46 40 C29.98356399 34.19332092 16.49495328 22.19943289 4 11 C3.38898437 10.47664063 2.77796875 9.95328125 2.1484375 9.4140625 C-0.04568593 6.71245474 0.27585856 3.36547447 0 0 Z " fill="#F5D4B3" transform="translate(683,1415)"/>
<path d="M0 0 C8.88387297 -1.24374222 16.64213374 3.18540723 23.71044922 8.21777344 C27.67428817 11.25970806 31.35316073 14.58921318 35 18 C35.50241211 18.46003418 36.00482422 18.92006836 36.52246094 19.39404297 C43.0287159 25.39021093 48.70587305 31.88282092 54.125 38.875 C54.681875 39.58865723 55.23875 40.30231445 55.8125 41.03759766 C58.72742182 44.89787503 60.78962394 48.23321034 62 53 C56.34515583 48.27798818 51.18760853 43.24367261 46.07421875 37.94726562 C41.5639375 33.35235438 37.66672068 30.06966222 31.1875 28.8125 C30.00220703 28.57466797 30.00220703 28.57466797 28.79296875 28.33203125 C28.20128906 28.22246094 27.60960937 28.11289062 27 28 C24.24498782 34.79884979 23.96453962 42.09206143 23.23242188 49.32226562 C23.11576172 50.36189453 22.99910156 51.40152344 22.87890625 52.47265625 C22.7816626 53.41375244 22.68441895 54.35484863 22.58422852 55.32446289 C21.91445389 58.39176757 20.84441958 60.46897796 19 63 C18.34 63 17.68 63 17 63 C16.93530518 62.28046143 16.87061035 61.56092285 16.80395508 60.81958008 C14.73308118 37.63571535 14.73308118 37.63571535 4.1875 17.375 C0.25769587 12.03332915 -0.90835238 8.5357939 -0.31640625 1.94921875 C-0.15978516 0.98435547 -0.15978516 0.98435547 0 0 Z " fill="#6F4E33" transform="translate(707,519)"/>
<path d="M0 0 C3.97196163 0.54353159 6.26248383 1.61925593 9.375 4.125 C10.08398438 4.68445312 10.79296875 5.24390625 11.5234375 5.8203125 C18.00742126 11.52703638 23.21469421 17.67403837 28.25 24.6875 C28.86101562 25.52861328 29.47203125 26.36972656 30.1015625 27.23632812 C31.23238877 28.79306603 32.36065841 30.35166715 33.48535156 31.9128418 C34.50559465 33.31871836 35.57763369 34.68824971 36.69433594 36.01879883 C38 38 38 38 38 42 C27.77 42 17.54 42 7 42 C6.57847656 39.79699219 6.15695312 37.59398437 5.72265625 35.32421875 C5.31274431 33.18944021 4.90213365 31.05479719 4.49145508 28.92016602 C4.20654392 27.43723345 3.92235871 25.95416121 3.63891602 24.47094727 C3.23124169 22.3383322 2.8209544 20.20623399 2.41015625 18.07421875 C2.16402588 16.79119873 1.91789551 15.50817871 1.66430664 14.1862793 C1.06397198 10.99867614 1.06397198 10.99867614 0 8 C-0.12781786 5.32605036 -0.04391871 2.67904143 0 0 Z " fill="#80A8C3" transform="translate(1024,1482)"/>
<path d="M0 0 C4.35565226 1.51114466 7.63143316 3.92556911 10.21875 7.7890625 C11.39320218 10.95355865 11.32665723 13.75911834 11.3125 17.125 C11.31765625 18.35347656 11.3228125 19.58195313 11.328125 20.84765625 C11.0625 24.0625 11.0625 24.0625 9.0625 27.0625 C7.12304688 27.41894531 7.12304688 27.41894531 4.78125 27.390625 C3.93949219 27.38546875 3.09773437 27.3803125 2.23046875 27.375 C1.35003906 27.354375 0.46960938 27.33375 -0.4375 27.3125 C-1.31792969 27.30734375 -2.19835937 27.3021875 -3.10546875 27.296875 C-9.62858124 27.21695938 -9.62858124 27.21695938 -11.9375 26.0625 C-12.04621967 23.51966766 -12.12512401 20.98154912 -12.1875 18.4375 C-12.22101562 17.72464844 -12.25453125 17.01179687 -12.2890625 16.27734375 C-12.38506563 11.04517294 -11.33163549 8.24611389 -7.9375 4.0625 C-5.18592856 1.23851879 -3.97678008 0.08461234 0 0 Z " fill="#F4F5F5" transform="translate(601.9375,879.9375)"/>
<path d="M0 0 C3.39273999 2.78734401 6.03560585 6.0712117 8 10 C8.07187519 12.71975715 8.0927862 15.40674632 8.0625 18.125 C8.041875 20.72375 8.02125 23.3225 8 26 C0.74 26 -6.52 26 -14 26 C-14.103125 22.4525 -14.20625 18.905 -14.3125 15.25 C-14.35802002 14.13786133 -14.40354004 13.02572266 -14.45043945 11.87988281 C-14.55259997 4.65350952 -14.55259997 4.65350952 -11.75390625 1.34375 C-7.63476178 -0.66615879 -4.46194833 -1.29442187 0 0 Z " fill="#F4F6F6" transform="translate(1004,882)"/>
</svg>
